<svg width="280" height="179" viewBox="0 0 280 179" fill="none" xmlns="http://www.w3.org/2000/svg">
<path d="M280 158.181H0V158.302H280V158.181Z" fill="#EBEBEB"/>
<path d="M251.944 165.955H233.396V166.076H251.944V165.955Z" fill="#EBEBEB"/>
<path d="M185.484 167.269H180.617V167.39H185.484V167.269Z" fill="#EBEBEB"/>
<path d="M232.836 161.472H222.09V161.592H232.836V161.472Z" fill="#EBEBEB"/>
<path d="M53.5634 162.283H29.377V162.404H53.5634V162.283Z" fill="#EBEBEB"/>
<path d="M62.0995 162.283H58.5547V162.404H62.0995V162.283Z" fill="#EBEBEB"/>
<path d="M126.084 164.322H73.623V164.443H126.084V164.322Z" fill="#EBEBEB"/>
<path d="M132.721 136.633H24.5904C23.7434 136.632 22.9315 136.341 22.333 135.823C21.7346 135.306 21.3984 134.605 21.3984 133.874V2.73459C21.4058 2.00796 21.7452 1.31317 22.3428 0.801158C22.9405 0.289141 23.7482 0.00124477 24.5904 0H132.721C133.569 0 134.382 0.290653 134.982 0.808019C135.582 1.32539 135.918 2.02708 135.918 2.75875V133.874C135.918 134.606 135.582 135.308 134.982 135.825C134.382 136.342 133.569 136.633 132.721 136.633ZM24.5904 0.0966291C23.7805 0.0979089 23.0042 0.3764 22.432 0.870976C21.8598 1.36555 21.5384 2.0358 21.5384 2.73459V133.874C21.5384 134.573 21.8598 135.243 22.432 135.738C23.0042 136.232 23.7805 136.511 24.5904 136.512H132.721C133.531 136.511 134.308 136.233 134.881 135.738C135.454 135.244 135.777 134.574 135.778 133.874V2.73459C135.777 2.03535 135.454 1.36512 134.881 0.870681C134.308 0.376243 133.531 0.0979062 132.721 0.0966291H24.5904Z" fill="#EBEBEB"/>
<path d="M253.853 136.633H145.717C144.87 136.632 144.057 136.341 143.458 135.824C142.858 135.307 142.521 134.606 142.52 133.874V2.73459C142.528 2.00752 142.869 1.31274 143.468 0.800855C144.066 0.288972 144.874 0.00123119 145.717 0H253.853C254.694 0.00251452 255.501 0.290973 256.097 0.802853C256.694 1.31473 257.032 2.00879 257.04 2.73459V133.874C257.04 134.604 256.704 135.304 256.107 135.822C255.51 136.339 254.699 136.63 253.853 136.633ZM145.717 0.0966291C144.907 0.0979062 144.13 0.376243 143.557 0.870681C142.984 1.36512 142.661 2.03535 142.66 2.73459V133.874C142.661 134.574 142.984 135.244 143.557 135.738C144.13 136.233 144.907 136.511 145.717 136.512H253.853C254.664 136.511 255.44 136.233 256.014 135.738C256.587 135.244 256.909 134.574 256.911 133.874V2.73459C256.909 2.03535 256.587 1.36512 256.014 0.870681C255.44 0.376243 254.664 0.0979062 253.853 0.0966291H145.717Z" fill="#EBEBEB"/>
<path d="M124.705 62.1952H37.043V157.964H124.705V62.1952Z" fill="#F0F0F0"/>
<path d="M121.604 65.6885H40.1406V86.1689H121.604V65.6885Z" fill="#E0E0E0"/>
<path d="M44.7662 69.0022H40.1406V86.1635H44.7662V69.0022Z" fill="#EBEBEB"/>
<path d="M67.1432 69.0022H62.5176V86.1635H67.1432V69.0022Z" fill="#EBEBEB"/>
<path d="M92.5467 68.5671L87.9883 69.245L91.3671 86.1569L95.9255 85.479L92.5467 68.5671Z" fill="#EBEBEB"/>
<path d="M50.5006 71.2636H45.875V86.1638H50.5006V71.2636Z" fill="#EBEBEB"/>
<path d="M61.1354 71.2636H56.5098V86.1638H61.1354V71.2636Z" fill="#EBEBEB"/>
<path d="M87.9811 71.2636H83.3555V86.1638H87.9811V71.2636Z" fill="#EBEBEB"/>
<path d="M73.2205 70.7499L68.7051 71.6157L72.4519 86.1609L76.9673 85.2951L73.2205 70.7499Z" fill="#EBEBEB"/>
<path d="M54.5042 68.1475H52.1914V86.1639H54.5042V68.1475Z" fill="#EBEBEB"/>
<path d="M82.0296 68.1475H79.7168V86.1639H82.0296V68.1475Z" fill="#EBEBEB"/>
<path d="M40.1403 109.886L121.604 109.886V89.4056H40.1403V109.886Z" fill="#E0E0E0"/>
<path d="M116.978 109.886H121.604V92.7248H116.978V109.886Z" fill="#EBEBEB"/>
<path d="M94.601 109.886H99.2266V92.7248H94.601V109.886Z" fill="#EBEBEB"/>
<path d="M65.8205 109.211L70.3789 109.888L73.7577 92.9766L69.1994 92.2987L65.8205 109.211Z" fill="#EBEBEB"/>
<path d="M111.238 109.886H115.863V94.986H111.238V109.886Z" fill="#EBEBEB"/>
<path d="M100.609 109.886H105.234V94.986H100.609V109.886Z" fill="#EBEBEB"/>
<path d="M73.7572 109.886H78.3828V94.986H73.7572V109.886Z" fill="#EBEBEB"/>
<path d="M84.7834 109.017L89.2988 109.883L93.0457 95.3375L88.5302 94.4717L84.7834 109.017Z" fill="#EBEBEB"/>
<path d="M107.24 109.886H109.553V91.8697H107.24V109.886Z" fill="#EBEBEB"/>
<path d="M79.7165 109.886H82.0293V91.8697H79.7165V109.886Z" fill="#EBEBEB"/>
<path d="M44.7662 92.7246H40.1406V109.886H44.7662V92.7246Z" fill="#EBEBEB"/>
<path d="M50.5006 94.986H45.875V109.886H50.5006V94.986Z" fill="#EBEBEB"/>
<path d="M61.1354 94.986H56.5098V109.886H61.1354V94.986Z" fill="#EBEBEB"/>
<path d="M54.5042 91.8699H52.1914V109.886H54.5042V91.8699Z" fill="#EBEBEB"/>
<path d="M121.604 113.128H40.1406V133.609H121.604V113.128Z" fill="#E0E0E0"/>
<path d="M91.5201 116.443H86.8945V133.604H91.5201V116.443Z" fill="#EBEBEB"/>
<path d="M116.928 116.01L112.369 116.688L115.748 133.6L120.306 132.922L116.928 116.01Z" fill="#EBEBEB"/>
<path d="M74.8776 118.708H70.252V133.609H74.8776V118.708Z" fill="#EBEBEB"/>
<path d="M85.5182 118.708H80.8926V133.609H85.5182V118.708Z" fill="#EBEBEB"/>
<path d="M112.364 118.708H107.738V133.609H112.364V118.708Z" fill="#EBEBEB"/>
<path d="M97.6072 118.192L93.0918 119.058L96.8386 133.603L101.354 132.738L97.6072 118.192Z" fill="#EBEBEB"/>
<path d="M78.8812 115.592H76.5684V133.608H78.8812V115.592Z" fill="#EBEBEB"/>
<path d="M106.407 115.592H104.094V133.608H106.407V115.592Z" fill="#EBEBEB"/>
<path d="M63.6873 116.014L59.1289 116.692L62.5077 133.604L67.0661 132.926L63.6873 116.014Z" fill="#EBEBEB"/>
<path d="M59.1256 118.708H54.5V133.609H59.1256V118.708Z" fill="#EBEBEB"/>
<path d="M44.365 118.195L39.8496 119.061L43.5964 133.606L48.1119 132.74L44.365 118.195Z" fill="#EBEBEB"/>
<path d="M53.1663 115.592H50.8535V133.608H53.1663V115.592Z" fill="#EBEBEB"/>
<path d="M170.956 100.798H220.359C221.635 100.798 222.899 101.015 224.078 101.438C225.256 101.86 226.327 102.478 227.228 103.258C228.129 104.037 228.842 104.963 229.328 105.981C229.814 106.999 230.062 108.089 230.059 109.19V142.469H161.279V109.19C161.273 106.971 162.289 104.84 164.104 103.266C165.919 101.692 168.383 100.805 170.956 100.798Z" fill="#E6E6E6"/>
<path d="M146.653 125.467H155.49C156.249 125.465 157.002 125.592 157.705 125.841C158.408 126.09 159.047 126.457 159.585 126.92C160.123 127.383 160.549 127.933 160.84 128.538C161.131 129.144 161.281 129.793 161.28 130.449V157.988H140.885V130.449C140.884 129.795 141.033 129.147 141.322 128.543C141.612 127.938 142.037 127.389 142.572 126.927C143.108 126.464 143.744 126.097 144.444 125.847C145.144 125.596 145.895 125.467 146.653 125.467Z" fill="#E0E0E0"/>
<path d="M146.653 125.467H146.838C147.595 125.467 148.346 125.596 149.046 125.847C149.746 126.097 150.382 126.464 150.918 126.927C151.454 127.389 151.879 127.938 152.168 128.543C152.458 129.147 152.606 129.795 152.606 130.449V157.988H140.885V130.449C140.884 129.795 141.033 129.147 141.322 128.543C141.612 127.938 142.037 127.389 142.572 126.927C143.108 126.464 143.744 126.097 144.444 125.847C145.144 125.596 145.895 125.467 146.653 125.467Z" fill="#EBEBEB"/>
<path d="M222.864 145.32H155.07V157.964H222.864V145.32Z" fill="#E6E6E6"/>
<path d="M220.355 133.758H154.975C151.736 133.758 149.111 136.023 149.111 138.817V141.962C149.111 144.756 151.736 147.02 154.975 147.02H220.355C223.593 147.02 226.218 144.756 226.218 141.962V138.817C226.218 136.023 223.593 133.758 220.355 133.758Z" fill="#F5F5F5"/>
<path d="M220.242 133.758H212.139C208.9 133.758 206.275 136.023 206.275 138.817V141.962C206.275 144.756 208.9 147.02 212.139 147.02H220.242C223.48 147.02 226.105 144.756 226.105 141.962V138.817C226.105 136.023 223.48 133.758 220.242 133.758Z" fill="#E0E0E0"/>
<path d="M221.122 125.467H229.964C230.722 125.467 231.472 125.596 232.172 125.847C232.872 126.097 233.508 126.464 234.043 126.927C234.578 127.39 235.002 127.939 235.291 128.543C235.58 129.147 235.728 129.795 235.727 130.449V157.988H215.359V130.449C215.358 129.795 215.506 129.147 215.795 128.543C216.084 127.939 216.508 127.39 217.043 126.927C217.578 126.464 218.214 126.097 218.914 125.847C219.614 125.596 220.364 125.467 221.122 125.467Z" fill="#E0E0E0"/>
<path d="M221.122 125.467H221.312C222.07 125.467 222.82 125.596 223.52 125.847C224.22 126.097 224.856 126.464 225.391 126.927C225.926 127.39 226.35 127.939 226.639 128.543C226.928 129.147 227.076 129.795 227.075 130.449V157.988H215.359V130.449C215.358 129.795 215.506 129.147 215.795 128.543C216.084 127.939 216.508 127.39 217.043 126.927C217.578 126.464 218.214 126.097 218.914 125.847C219.614 125.596 220.364 125.467 221.122 125.467Z" fill="#F0F0F0"/>
<path d="M84.1422 50.5532C91.3316 49.5464 96.2137 43.7018 95.0467 37.4991C93.8797 31.2964 87.1055 27.0843 79.9161 28.0911C72.7266 29.098 67.8445 34.9425 69.0115 41.1452C70.1785 47.3479 76.9527 51.56 84.1422 50.5532Z" fill="#E0E0E0"/>
<path d="M83.8265 48.8745C89.9413 48.0182 94.0937 43.0473 93.1011 37.7716C92.1086 32.496 86.3469 28.9135 80.232 29.7699C74.1172 30.6262 69.9648 35.5972 70.9574 40.8728C71.95 46.1484 77.7116 49.7309 83.8265 48.8745Z" fill="#F0F0F0"/>
<path d="M81.4959 45.9661V39.2021L76.3047 41.7386" fill="#F0F0F0"/>
<path d="M81.4975 46.4498C81.349 46.4498 81.2066 46.3989 81.1015 46.3083C80.9965 46.2177 80.9375 46.0948 80.9375 45.9667V40.0288L76.5807 42.1595C76.4515 42.2221 76.2987 42.2379 76.1559 42.2035C76.0132 42.1691 75.8921 42.0872 75.8191 41.9759C75.7461 41.865 75.7269 41.7336 75.7657 41.6105C75.8046 41.4874 75.8982 41.3826 76.0263 41.3188L81.2231 38.7823C81.3083 38.741 81.4044 38.7197 81.5021 38.7204C81.5998 38.721 81.6955 38.7438 81.7799 38.7863C81.8642 38.8287 81.9342 38.8895 81.9829 38.9626C82.0316 39.0356 82.0573 39.1184 82.0575 39.2026V45.9667C82.0575 46.0948 81.9985 46.2177 81.8935 46.3083C81.7885 46.3989 81.646 46.4498 81.4975 46.4498Z" fill="#E0E0E0"/>
<path d="M240.022 24.969H155.602V89.5991H240.022V24.969Z" fill="#E6E6E6"/>
<path d="M237.799 26.742H157.713V87.8645H237.799V26.742Z" fill="#F0F0F0"/>
<path d="M176.506 26.742L157.713 87.7292V59.074L167.636 26.742H176.506Z" fill="white"/>
<path d="M183.165 26.742L164.204 87.8645H161.18L180.141 26.742H183.165Z" fill="white"/>
<path d="M237.798 65.3113V75.0756L233.961 87.8644H230.938L237.798 65.3113Z" fill="white"/>
<path d="M185.646 25.6455H184.297V89.232H185.646V25.6455Z" fill="#E6E6E6"/>
<path d="M211.791 25.6455H210.441V89.232H211.791V25.6455Z" fill="#E6E6E6"/>
<path d="M140 180C199.966 180 248.579 177.551 248.579 174.531C248.579 171.51 199.966 169.062 140 169.062C80.0341 169.062 31.4219 171.51 31.4219 174.531C31.4219 177.551 80.0341 180 140 180Z" fill="#F5F5F5"/>
<path d="M225.065 162.447C225.065 162.447 227.725 157.442 224.684 152.504C221.643 147.566 220.764 146.407 222.702 145.392C224.639 144.378 225.53 149.344 225.53 149.344C226.488 147.102 226.586 144.653 225.81 142.358C224.466 138.788 223.62 132.971 225.457 132.347C227.294 131.724 225.81 139.595 227.411 142.291C228.224 140.404 228.749 138.434 228.974 136.43C229.192 133.56 228.851 128.98 230.301 127.806C231.751 126.632 232.687 127.444 231.259 133.773C230.4 137.556 229.926 141.397 229.842 145.252C229.842 145.252 232.995 136.947 235.117 136.705C237.239 136.464 237.234 139.15 235.419 141.484C233.605 143.817 230.105 147.996 229.534 150.146C229.534 150.146 233 143.895 236.114 145.798C239.227 147.702 233.403 151.485 230.805 152.852C228.207 154.219 226.403 162.761 226.403 162.761L225.065 162.447Z" fill="#FB4774"/>
<path opacity="0.2" d="M225.065 162.447C225.065 162.447 227.725 157.442 224.684 152.504C221.643 147.566 220.764 146.407 222.702 145.392C224.639 144.378 225.53 149.344 225.53 149.344C226.488 147.102 226.586 144.653 225.81 142.358C224.466 138.788 223.62 132.971 225.457 132.347C227.294 131.724 225.81 139.595 227.411 142.291C228.224 140.404 228.749 138.434 228.974 136.43C229.192 133.56 228.851 128.98 230.301 127.806C231.751 126.632 232.687 127.444 231.259 133.773C230.4 137.556 229.926 141.397 229.842 145.252C229.842 145.252 232.995 136.947 235.117 136.705C237.239 136.464 237.234 139.15 235.419 141.484C233.605 143.817 230.105 147.996 229.534 150.146C229.534 150.146 233 143.895 236.114 145.798C239.227 147.702 233.403 151.485 230.805 152.852C228.207 154.219 226.403 162.761 226.403 162.761L225.065 162.447Z" fill="black"/>
<path d="M227.165 164.501C227.165 164.501 224.572 159.461 227.68 154.562C230.788 149.663 231.684 148.513 229.763 147.479C227.842 146.446 226.879 151.393 226.879 151.393C225.951 149.141 225.886 146.692 226.694 144.407C228.089 140.851 229.018 135.043 227.187 134.396C225.356 133.749 226.734 141.643 225.098 144.315C224.312 142.418 223.813 140.442 223.614 138.435C223.435 135.565 223.844 130.99 222.405 129.796C220.966 128.603 220.025 129.405 221.369 135.754C222.174 139.544 222.593 143.389 222.623 147.243C222.623 147.243 219.582 138.899 217.471 138.633C215.36 138.367 215.321 141.049 217.102 143.407C218.882 145.764 222.321 149.987 222.881 152.142C222.881 152.142 219.521 145.861 216.362 147.726C213.204 149.591 218.994 153.446 221.57 154.847C224.146 156.249 225.838 164.815 225.838 164.815L227.165 164.501Z" fill="#FB4774"/>
<path d="M215.215 160.906H236.612L234.882 174.12H216.945L215.215 160.906Z" fill="#263238"/>
<path d="M135.856 171.999V173.733C135.856 173.785 135.844 173.836 135.821 173.883C135.799 173.931 135.765 173.974 135.723 174.01C135.681 174.046 135.631 174.075 135.576 174.095C135.521 174.115 135.462 174.125 135.402 174.125H78.6072C78.1228 174.125 77.6458 174.022 77.2179 173.826C76.79 173.63 76.4244 173.347 76.153 173.001C75.8817 172.654 75.7128 172.256 75.6613 171.841C75.6098 171.425 75.6772 171.005 75.8576 170.617L93.856 132.159L122.942 132.328L121.951 137.319L115.534 169.617C115.486 169.862 115.5 170.113 115.576 170.352C115.652 170.592 115.787 170.814 115.972 171.004C116.158 171.194 116.389 171.347 116.65 171.452C116.91 171.557 117.195 171.612 117.482 171.612H135.402C135.462 171.612 135.521 171.621 135.576 171.64C135.631 171.659 135.681 171.688 135.723 171.724C135.765 171.76 135.799 171.803 135.821 171.85C135.844 171.897 135.856 171.948 135.856 171.999Z" fill="#263238"/>
<path opacity="0.5" d="M135.856 171.999V173.733C135.856 173.785 135.844 173.836 135.821 173.883C135.799 173.931 135.765 173.974 135.723 174.01C135.681 174.046 135.631 174.075 135.576 174.095C135.521 174.115 135.462 174.125 135.402 174.125H78.6072C78.1228 174.125 77.6458 174.022 77.2179 173.826C76.79 173.63 76.4244 173.347 76.153 173.001C75.8817 172.654 75.7128 172.256 75.6613 171.841C75.6098 171.425 75.6772 171.005 75.8576 170.617L87.0184 146.774L93.856 132.159L122.942 132.328L121.951 137.319L119.151 151.364L115.528 169.617C115.48 169.862 115.494 170.113 115.57 170.352C115.646 170.592 115.781 170.814 115.967 171.004C116.152 171.194 116.383 171.347 116.644 171.452C116.905 171.557 117.189 171.612 117.477 171.612H135.397C135.457 171.611 135.516 171.62 135.572 171.639C135.627 171.658 135.678 171.686 135.721 171.722C135.764 171.758 135.798 171.801 135.821 171.849C135.844 171.896 135.856 171.947 135.856 171.999Z" fill="white"/>
<path opacity="0.2" d="M117.482 171.608H80.5221C80.3091 171.607 80.0996 171.562 79.9119 171.475C79.7242 171.388 79.5642 171.263 79.4458 171.11C79.3274 170.957 79.2544 170.782 79.2331 170.599C79.2118 170.416 79.2429 170.232 79.3237 170.062L95.1045 137.314H121.945L115.528 169.613C115.48 169.858 115.494 170.109 115.57 170.349C115.646 170.589 115.782 170.812 115.968 171.002C116.154 171.192 116.386 171.344 116.648 171.449C116.909 171.554 117.194 171.608 117.482 171.608Z" fill="black"/>
<path opacity="0.1" d="M122.942 132.323L121.95 137.314L119.156 151.359L87.0176 146.774L93.8552 132.154L122.942 132.323Z" fill="black"/>
<path d="M179.496 60.6344H44.8444C44.3921 60.6344 43.9443 60.7113 43.5264 60.8606C43.1086 61.0099 42.7289 61.2288 42.4091 61.5047C42.0893 61.7806 41.8356 62.1082 41.6625 62.4687C41.4895 62.8291 41.4004 63.2155 41.4004 63.6057V142.257C41.4004 143.045 41.7632 143.8 42.4091 144.358C43.055 144.915 43.931 145.228 44.8444 145.228H179.496C180.41 145.228 181.287 144.915 181.934 144.358C182.58 143.801 182.945 143.045 182.946 142.257V63.6057C182.945 62.8172 182.58 62.0615 181.934 61.5044C181.287 60.9473 180.41 60.6344 179.496 60.6344Z" fill="#263238"/>
<path opacity="0.6" d="M179.496 60.6344H44.8444C44.3921 60.6344 43.9443 60.7113 43.5264 60.8606C43.1086 61.0099 42.7289 61.2288 42.4091 61.5047C42.0893 61.7806 41.8356 62.1082 41.6625 62.4687C41.4895 62.8291 41.4004 63.2155 41.4004 63.6057V142.257C41.4004 143.045 41.7632 143.8 42.4091 144.358C43.055 144.915 43.931 145.228 44.8444 145.228H179.496C180.41 145.228 181.287 144.915 181.934 144.358C182.58 143.801 182.945 143.045 182.946 142.257V63.6057C182.945 62.8172 182.58 62.0615 181.934 61.5044C181.287 60.9473 180.41 60.6344 179.496 60.6344Z" fill="white"/>
<path opacity="0.2" d="M47.7004 145.223H44.8444C43.932 145.223 43.0568 144.911 42.4111 144.355C41.7654 143.799 41.4019 143.044 41.4004 142.257V63.6108C41.3997 63.2202 41.4882 62.8333 41.6609 62.4722C41.8337 62.1112 42.0873 61.783 42.4071 61.5066C42.727 61.2302 43.1069 61.0109 43.5251 60.8613C43.9433 60.7116 44.3917 60.6346 44.8444 60.6346H47.7004C47.2462 60.6327 46.7961 60.7083 46.376 60.8571C45.9558 61.0059 45.5739 61.2248 45.2523 61.5015C44.9306 61.7781 44.6755 62.1069 44.5017 62.4689C44.3279 62.8309 44.2389 63.219 44.2396 63.6108V142.257C44.2396 142.648 44.3293 143.035 44.5035 143.397C44.6776 143.758 44.9329 144.086 45.2546 144.361C45.5762 144.637 45.9579 144.855 46.3777 145.003C46.7975 145.151 47.247 145.226 47.7004 145.223Z" fill="black"/>
<path d="M179.842 63.1903H47.3633V139.029H179.842V63.1903Z" fill="#FB4774"/>
<path opacity="0.4" d="M111.776 92.0583C118.128 92.0583 123.278 87.6153 123.278 82.1345C123.278 76.6538 118.128 72.2108 111.776 72.2108C105.423 72.2108 100.273 76.6538 100.273 82.1345C100.273 87.6153 105.423 92.0583 111.776 92.0583Z" fill="white"/>
<path d="M109.032 80.6271V79.7188C109.032 79.2857 109.232 78.8703 109.587 78.564C109.941 78.2578 110.423 78.0857 110.925 78.0857H112.605C112.855 78.0832 113.104 78.1235 113.336 78.2045C113.568 78.2854 113.78 78.4053 113.958 78.5571C114.136 78.709 114.277 78.8899 114.374 79.0893C114.47 79.2887 114.52 79.5027 114.52 79.7188V80.6464H115.747V79.7188C115.745 79.0054 115.416 78.3217 114.831 77.8173C114.247 77.3129 113.454 77.0289 112.627 77.0276H110.947C110.121 77.0289 109.328 77.3129 108.743 77.8173C108.159 78.3217 107.83 79.0054 107.828 79.7188V80.6464L109.032 80.6271Z" fill="white"/>
<path d="M106.26 81.8493V86.7242C106.26 86.7953 106.276 86.8656 106.308 86.9313C106.339 86.9969 106.385 87.0566 106.443 87.1068C106.502 87.1571 106.571 87.1969 106.647 87.2241C106.723 87.2513 106.805 87.2653 106.887 87.2653H116.665C116.747 87.2653 116.828 87.2513 116.905 87.2241C116.981 87.1969 117.05 87.1571 117.108 87.1068C117.166 87.0566 117.213 86.9969 117.244 86.9313C117.276 86.8656 117.292 86.7953 117.292 86.7242V81.8493C117.292 81.7058 117.226 81.5681 117.108 81.4667C116.99 81.3652 116.831 81.3082 116.665 81.3082H106.887C106.805 81.3082 106.723 81.3222 106.647 81.3494C106.571 81.3766 106.502 81.4164 106.443 81.4667C106.385 81.5169 106.339 81.5766 106.308 81.6422C106.276 81.7079 106.26 81.7782 106.26 81.8493ZM112.129 84.608V85.5743H111.44V84.608C111.339 84.5596 111.254 84.4899 111.194 84.4053C111.133 84.3208 111.098 84.2243 111.093 84.1249C111.093 83.9647 111.166 83.8111 111.298 83.6979C111.429 83.5846 111.607 83.521 111.793 83.521C111.978 83.521 112.156 83.5846 112.288 83.6979C112.419 83.8111 112.493 83.9647 112.493 84.1249C112.485 84.2257 112.448 84.3232 112.384 84.4078C112.321 84.4925 112.232 84.5615 112.129 84.608Z" fill="white"/>
<path d="M144.808 100.512H78.7494C74.819 100.512 71.6328 100.943 71.6328 101.475V110.415C71.6328 110.947 74.819 111.378 78.7494 111.378H144.808C148.738 111.378 151.924 110.947 151.924 110.415V101.475C151.924 100.943 148.738 100.512 144.808 100.512Z" fill="white"/>
<g opacity="0.6">
<path d="M99.2479 97.4936V97.711H97.3047V95.3388H99.1863V95.5562H97.5959V96.4017H99.0127V96.6288H97.5959V97.5081L99.2479 97.4936Z" fill="white"/>
<path d="M101.768 96.6771V97.7111H101.488V96.7013C101.504 96.6263 101.5 96.5489 101.475 96.4756C101.451 96.4022 101.406 96.335 101.345 96.2793C101.285 96.2237 101.21 96.1813 101.126 96.1555C101.043 96.1298 100.954 96.1214 100.866 96.1312C100.767 96.1251 100.668 96.1377 100.576 96.1681C100.484 96.1986 100.4 96.246 100.331 96.3073C100.262 96.3685 100.21 96.442 100.178 96.5226C100.145 96.6032 100.133 96.6889 100.144 96.7738V97.7111H99.8691V95.9283H100.132V96.2568C100.216 96.1455 100.333 96.0555 100.471 95.996C100.609 95.9366 100.763 95.9099 100.916 95.9186C101.033 95.91 101.151 95.924 101.26 95.9594C101.37 95.9948 101.469 96.0509 101.551 96.1235C101.632 96.1961 101.694 96.2835 101.731 96.3792C101.769 96.475 101.781 96.5768 101.768 96.6771Z" fill="white"/>
<path d="M103.599 97.5954C103.476 97.6815 103.32 97.7261 103.162 97.721C103.081 97.7268 103 97.7174 102.924 97.6935C102.848 97.6697 102.779 97.6319 102.721 97.5827C102.664 97.5336 102.62 97.4743 102.591 97.4089C102.563 97.3436 102.551 97.2737 102.557 97.204V96.146H102.188V95.943H102.557V95.5565H102.837V95.943H103.464V96.146H102.837V97.2089C102.837 97.4215 102.96 97.5326 103.19 97.5326C103.301 97.5356 103.41 97.5048 103.498 97.4456L103.599 97.5954Z" fill="white"/>
<path d="M105.838 96.8946H104.114C104.127 97.0694 104.219 97.2327 104.372 97.3486C104.524 97.4645 104.723 97.5236 104.926 97.513C105.044 97.5164 105.162 97.4973 105.272 97.4573C105.381 97.4172 105.479 97.3571 105.558 97.2811L105.715 97.4358C105.562 97.5595 105.373 97.6437 105.167 97.679C104.962 97.7142 104.749 97.699 104.553 97.6351C104.357 97.5712 104.185 97.4611 104.058 97.3174C103.931 97.1737 103.853 97.0021 103.834 96.8222C103.826 96.7046 103.846 96.587 103.894 96.4766C103.941 96.3662 104.014 96.2655 104.109 96.1806C104.204 96.0958 104.318 96.0288 104.444 95.9837C104.57 95.9386 104.705 95.9165 104.842 95.9187C104.978 95.9164 105.113 95.9385 105.238 95.9837C105.364 96.0289 105.477 96.0961 105.571 96.1811C105.664 96.2661 105.737 96.3669 105.783 96.4773C105.829 96.5877 105.848 96.7051 105.838 96.8222C105.838 96.8222 105.838 96.8656 105.838 96.8946ZM104.114 96.7159H105.575C105.559 96.5582 105.475 96.4114 105.34 96.3045C105.205 96.1975 105.028 96.1382 104.844 96.1382C104.661 96.1382 104.484 96.1975 104.349 96.3045C104.214 96.4114 104.13 96.5582 104.114 96.7159Z" fill="white"/>
<path d="M107.446 95.9185V96.1455H107.378C107.28 96.1411 107.182 96.1555 107.09 96.1878C106.999 96.2201 106.917 96.2695 106.851 96.3323C106.785 96.3952 106.735 96.4699 106.706 96.5513C106.677 96.6326 106.67 96.7184 106.684 96.8026V97.7109H106.398V95.9281H106.667V96.276C106.739 96.155 106.852 96.0559 106.992 95.992C107.131 95.9281 107.289 95.9024 107.446 95.9185Z" fill="white"/>
<path d="M110.739 95.928L109.709 97.9234C109.535 98.2713 109.317 98.3824 109.02 98.3824C108.928 98.3853 108.837 98.3722 108.751 98.344C108.666 98.3158 108.588 98.273 108.521 98.2181L108.65 98.0394C108.698 98.0837 108.756 98.1186 108.821 98.142C108.886 98.1653 108.955 98.1764 109.025 98.1747C109.21 98.1747 109.333 98.1022 109.451 97.8799L109.541 97.706L108.639 95.928H108.93L109.703 97.4403L110.481 95.928H110.739Z" fill="white"/>
<path d="M110.879 96.8222C110.878 96.6423 110.939 96.4663 111.054 96.3163C111.169 96.1663 111.333 96.0491 111.526 95.9796C111.718 95.9101 111.93 95.8914 112.134 95.9259C112.339 95.9604 112.527 96.0466 112.675 96.1734C112.823 96.3002 112.923 96.4621 112.964 96.6384C113.006 96.8147 112.985 96.9976 112.905 97.1638C112.826 97.3301 112.691 97.4722 112.518 97.5723C112.345 97.6723 112.141 97.7257 111.932 97.7257C111.793 97.7304 111.654 97.7103 111.524 97.6666C111.394 97.623 111.276 97.5567 111.178 97.4719C111.079 97.3871 111.001 97.2856 110.95 97.1739C110.899 97.0621 110.875 96.9424 110.879 96.8222ZM112.694 96.8222C112.687 96.6925 112.637 96.5673 112.548 96.4622C112.46 96.3571 112.337 96.2768 112.196 96.2313C112.055 96.1858 111.902 96.177 111.755 96.2061C111.609 96.2353 111.475 96.301 111.371 96.3951C111.268 96.4892 111.198 96.6075 111.172 96.7353C111.146 96.8632 111.164 96.9949 111.223 97.1141C111.283 97.2333 111.382 97.3346 111.508 97.4056C111.634 97.4765 111.782 97.5139 111.932 97.5131C112.035 97.5126 112.136 97.4941 112.23 97.4586C112.324 97.4231 112.408 97.3713 112.478 97.3066C112.548 97.2419 112.601 97.1655 112.636 97.0822C112.67 96.9989 112.684 96.9104 112.677 96.8222H112.694Z" fill="white"/>
<path d="M115.387 95.928V97.7108H115.124V97.3823C115.047 97.4922 114.938 97.5821 114.807 97.6425C114.675 97.7029 114.528 97.7315 114.379 97.7253C114.261 97.7354 114.142 97.7225 114.03 97.6875C113.918 97.6525 113.817 97.5963 113.733 97.523C113.65 97.4498 113.587 97.3614 113.549 97.2643C113.51 97.1672 113.497 97.0639 113.511 96.962V95.928H113.786V96.9378C113.769 97.0128 113.773 97.0902 113.798 97.1635C113.823 97.2369 113.867 97.3041 113.928 97.3598C113.989 97.4154 114.064 97.4578 114.147 97.4836C114.23 97.5093 114.32 97.5177 114.407 97.5079C114.505 97.5128 114.602 97.4991 114.693 97.468C114.783 97.4368 114.865 97.389 114.931 97.3277C114.998 97.2664 115.048 97.1933 115.079 97.1134C115.109 97.0335 115.119 96.9488 115.107 96.8653V95.928H115.387Z" fill="white"/>
<path d="M117.208 95.9188V96.1459H117.14C117.042 96.1415 116.944 96.1559 116.852 96.1882C116.761 96.2205 116.679 96.2699 116.613 96.3327C116.547 96.3956 116.497 96.4703 116.468 96.5517C116.439 96.633 116.432 96.7188 116.446 96.803V97.7113H116.166V95.9285H116.435V96.2764C116.506 96.1562 116.619 96.0577 116.757 95.9939C116.895 95.93 117.052 95.9039 117.208 95.9188Z" fill="white"/>
</g>
<path opacity="0.4" d="M127.376 130.202H96.1675C94.9343 130.201 93.7521 129.778 92.8806 129.025C92.0091 128.272 91.5195 127.251 91.5195 126.187C91.5195 125.123 92.0091 124.103 92.8806 123.35C93.7521 122.597 94.9343 122.174 96.1675 122.173H127.376C128.611 122.173 129.794 122.596 130.667 123.348C131.54 124.101 132.03 125.123 132.03 126.187C132.03 127.252 131.54 128.274 130.667 129.026C129.794 129.779 128.611 130.202 127.376 130.202Z" fill="white"/>
<path d="M99.6017 125.984C99.599 125.796 99.6412 125.61 99.7257 125.436C99.8101 125.263 99.935 125.106 100.093 124.976C100.25 124.846 100.437 124.745 100.642 124.68C100.846 124.615 101.064 124.587 101.282 124.598C101.504 124.591 101.726 124.625 101.932 124.699C102.137 124.772 102.322 124.882 102.474 125.023L102.183 125.264C102.071 125.16 101.934 125.077 101.781 125.022C101.628 124.967 101.464 124.941 101.298 124.945C101.1 124.947 100.904 124.991 100.73 125.074C100.556 125.156 100.408 125.275 100.3 125.419C100.192 125.563 100.126 125.728 100.11 125.899C100.094 126.07 100.127 126.241 100.206 126.399C100.285 126.556 100.409 126.694 100.565 126.8C100.721 126.906 100.905 126.977 101.101 127.007C101.297 127.037 101.498 127.024 101.687 126.971C101.876 126.917 102.046 126.824 102.183 126.699L102.474 126.941C102.322 127.082 102.136 127.192 101.929 127.266C101.722 127.339 101.499 127.373 101.276 127.366C101.059 127.377 100.842 127.349 100.638 127.284C100.434 127.219 100.248 127.119 100.091 126.989C99.9339 126.859 99.8094 126.703 99.7252 126.531C99.6411 126.358 99.599 126.172 99.6017 125.984Z" fill="white"/>
<path d="M102.775 125.984C102.76 125.695 102.845 125.408 103.019 125.161C103.194 124.914 103.451 124.718 103.756 124.598C104.061 124.478 104.401 124.439 104.732 124.487C105.063 124.535 105.37 124.668 105.613 124.867C105.856 125.067 106.023 125.325 106.095 125.608C106.166 125.891 106.138 126.186 106.013 126.454C105.889 126.723 105.674 126.954 105.396 127.116C105.119 127.279 104.791 127.366 104.455 127.366C104.238 127.376 104.021 127.347 103.817 127.282C103.614 127.217 103.427 127.117 103.27 126.988C103.113 126.858 102.988 126.703 102.903 126.53C102.818 126.357 102.774 126.172 102.775 125.984ZM105.659 125.984C105.663 125.775 105.594 125.57 105.461 125.395C105.329 125.219 105.139 125.082 104.916 125C104.693 124.919 104.447 124.896 104.209 124.935C103.971 124.975 103.752 125.074 103.579 125.222C103.407 125.369 103.29 125.557 103.242 125.762C103.194 125.967 103.218 126.18 103.311 126.373C103.403 126.566 103.561 126.731 103.763 126.847C103.964 126.963 104.202 127.024 104.444 127.023C104.604 127.028 104.764 127.004 104.913 126.954C105.062 126.903 105.198 126.827 105.311 126.73C105.425 126.632 105.515 126.516 105.574 126.388C105.634 126.26 105.663 126.122 105.659 125.984Z" fill="white"/>
<path d="M109.49 124.651V127.357H109.121L107.239 125.337V127.357H106.791V124.651H107.161L109.042 126.666V124.651H109.49Z" fill="white"/>
<path d="M111.054 124.965H109.979V124.651H112.56V124.984H111.496V127.357H111.054V124.965Z" fill="white"/>
<path d="M113.059 124.651H113.507V127.357H113.059V124.651Z" fill="white"/>
<path d="M117.145 124.651V127.357H116.775L114.893 125.337V127.357H114.445V124.651H114.798L116.68 126.666V124.651H117.145Z" fill="white"/>
<path d="M118.059 126.168V124.651H118.507V126.173C118.507 126.772 118.826 127.043 119.391 127.043C119.957 127.043 120.276 126.772 120.276 126.173V124.651H120.713V126.187C120.713 126.491 120.573 126.782 120.324 126.997C120.075 127.212 119.738 127.333 119.386 127.333C119.034 127.333 118.696 127.212 118.447 126.997C118.198 126.782 118.059 126.491 118.059 126.187V126.168Z" fill="white"/>
<path d="M123.904 126.999V127.337H121.631V124.651H123.871V124.984H122.079V125.815H123.647V126.144H122.079V127.018L123.904 126.999Z" fill="white"/>
<path d="M193.945 76.8631C197.288 78.8589 201.027 80.3082 204.977 81.1389H205.016C204.721 81.1316 204.43 81.2024 204.182 81.3418C203.938 81.4731 203.743 81.6628 203.622 81.8878C203.581 81.9567 203.558 82.0326 203.555 82.11C203.644 81.0954 203.135 79.9552 202.776 78.8585C202.132 77.124 201.376 75.346 200.62 73.6018L202.782 72.6017C204.568 74.9643 210.532 82.4434 206.461 84.6079C205.763 84.9591 204.938 85.0728 204.148 84.9267C199.712 84.3598 195.482 82.9362 191.772 80.762C191.515 80.6074 191.291 80.4722 190.988 80.2789L193.956 76.8534L193.945 76.8631Z" fill="#DC897C"/>
<path d="M193.318 76.3367C195.278 76.5406 197.14 77.1928 198.711 78.2257L196.471 84.2071C196.471 84.2071 185.584 75.5491 193.318 76.3367Z" fill="#FB4774"/>
<path opacity="0.6" d="M193.295 81.3662C194.291 82.3509 195.345 83.291 196.453 84.1829L197.377 81.7237L198.71 78.2016C197.141 77.1694 195.281 76.5172 193.323 76.3125C188.563 75.8535 190.836 78.9263 193.295 81.3662Z" fill="white"/>
<path opacity="0.2" d="M193.295 81.366C194.291 82.3507 195.345 83.2908 196.453 84.1828L197.377 81.7235C196.215 80.9425 194.784 80.5175 193.311 80.5157C193.278 80.7982 193.272 81.0827 193.295 81.366Z" fill="black"/>
<path d="M169.12 67.4903C169.12 67.4903 163.912 82.4291 174.883 84.4341C185.853 86.4392 187.04 79.5641 187.04 79.5641C187.04 79.5641 178.024 67.7947 169.12 67.4903Z" fill="#263238"/>
<path d="M166.55 72.4375C166.53 72.4425 166.509 72.4425 166.489 72.4375C166.473 72.4309 166.459 72.4216 166.447 72.4101C166.436 72.3986 166.427 72.3852 166.422 72.3707C166.417 72.3562 166.415 72.3409 166.417 72.3259C166.419 72.3108 166.424 72.2962 166.433 72.2829C166.596 72.0252 166.827 71.8037 167.107 71.636C167.387 71.4683 167.708 71.359 168.045 71.3167C168.08 71.3176 168.114 71.3294 168.139 71.3498C168.165 71.3702 168.181 71.3978 168.185 71.4278C168.187 71.443 168.185 71.4584 168.18 71.4729C168.174 71.4875 168.166 71.501 168.154 71.5127C168.143 71.5244 168.129 71.534 168.113 71.541C168.097 71.548 168.08 71.5522 168.062 71.5534C167.77 71.5945 167.493 71.6925 167.251 71.8398C167.01 71.9871 166.81 72.18 166.668 72.4037C166.653 72.4178 166.635 72.4284 166.614 72.4343C166.594 72.4403 166.572 72.4414 166.55 72.4375Z" fill="#263238"/>
<path d="M168.118 74.2926C168.047 74.8749 167.895 75.4476 167.664 75.9981C167.838 76.0875 168.036 76.1346 168.238 76.1346C168.44 76.1346 168.639 76.0875 168.812 75.9981L168.118 74.2926Z" fill="#DE5753"/>
<path d="M167.06 73.6406C167.178 73.9064 167.441 74.0658 167.62 73.9982C167.799 73.9305 167.9 73.6648 167.782 73.3991C167.665 73.1333 167.401 72.9739 167.222 73.0415C167.043 73.1092 166.948 73.3749 167.06 73.6406Z" fill="#263238"/>
<path d="M167.31 73.027H166.543C166.543 73.027 167.092 73.3942 167.31 73.027Z" fill="#263238"/>
<path d="M178.21 76.1482C178.19 76.1915 178.164 76.2322 178.131 76.269C178.081 76.3512 178.025 76.4285 177.969 76.5106C177.641 77.0197 177.204 77.4706 176.681 77.8392C175.001 78.994 173.539 79.3418 172.268 79.0084L172.083 78.9553C170.196 78.2934 168.723 76.3463 167.553 73.7712C167.033 72.7634 166.706 71.6899 166.584 70.5921C166.584 70.5921 166.584 70.5534 166.584 70.5438C166.584 70.5341 166.584 70.4568 166.584 70.4181C166.54 69.789 166.679 69.1603 166.988 68.5892C167.297 68.018 167.767 67.5224 168.354 67.1473C168.856 66.8073 169.4 66.5172 169.978 66.2824C175.572 63.9295 181.015 71.5922 178.21 76.1482Z" fill="#E4897B"/>
<path opacity="0.2" d="M177.968 76.5106C177.64 77.0197 177.203 77.4705 176.68 77.8392C175 78.9939 173.539 79.3418 172.268 79.0084C173.504 78.7499 174.617 78.1677 175.454 77.3416C175.777 77.0528 176.17 76.8288 176.604 76.6852C177.039 76.5416 177.504 76.482 177.968 76.5106Z" fill="black"/>
<path d="M166.555 70.5629C166.555 70.5629 168.117 74.1092 172.681 74.0464C172.681 74.0464 176.243 76.9453 178.645 76.0225C181.921 74.7711 182.593 69.6305 179.256 66.0407C174.921 61.3832 165.469 64.7411 166.555 70.5629Z" fill="#263238"/>
<path d="M170.24 73.8436C169.949 73.3073 169.954 72.2106 170.979 71.94C172.004 71.6695 173.779 73.5489 171.573 75.0177C171.259 75.2302 170.845 74.9548 170.24 73.8436Z" fill="#E4897B"/>
<path d="M171.468 64.1083C171.468 64.1083 167.234 64.8281 165.868 67.0071C164.266 69.5388 164.188 71.5004 168.444 72.8048C168.444 72.8048 173.825 68.4565 176.144 67.9734C177.495 67.6842 178.872 67.4935 180.26 67.4033C178.714 63.543 173.176 62.509 171.468 64.1083Z" fill="#263238"/>
<path d="M175.571 77.9307C175.571 77.9307 178.483 79.67 179.239 82.5399L188.317 77.9694C188.317 77.9694 181.21 76.5731 179.99 74.2009C179.99 74.2009 175.241 74.7082 175.571 77.9307Z" fill="#E4897B"/>
<path d="M184.588 96.7496C184.588 96.7496 172.828 86.7824 171.562 83.6516C171.562 83.6516 176.507 77.0084 186.391 76.7281C196.275 76.4479 203.001 92.6719 203.001 92.6719L184.588 96.7496Z" fill="#FB4774"/>
<path opacity="0.6" d="M202.999 92.6764L184.592 96.7542C184.592 96.7542 182.027 94.5752 179.16 91.9227C178.275 91.0965 177.351 90.2269 176.461 89.3669C174.126 87.0816 172.065 84.8495 171.566 83.6368C171.566 83.6368 176.506 76.9936 186.39 76.7134C196.274 76.4331 202.999 92.6764 202.999 92.6764Z" fill="white"/>
<path d="M173.601 72.3456C173.601 72.3456 175.32 77.2737 181.357 78.9067C187.394 80.5397 185.876 85.8591 191.728 85.231C194.842 84.8977 197.507 79.4333 187.959 74.6019C182.393 71.7948 184.554 62.5668 172.738 63.4316C172.727 63.4364 175.18 69.7608 173.601 72.3456Z" fill="#263238"/>
<path d="M179.464 171.869L176.664 171.318C177.084 159.239 179.106 144.634 180.892 133.662C181.172 131.942 181.452 130.318 181.71 128.801C181.838 128.082 181.956 127.391 182.074 126.724C182.634 123.434 183.149 120.834 183.457 119.225C183.686 118.051 183.815 117.409 183.815 117.409L193.895 119.53L193.173 121.723L190.793 128.97L190.524 129.797L188.945 134.575L186.268 142.706C186.436 154.983 179.464 171.869 179.464 171.869Z" fill="#E4897B"/>
<path d="M203.431 169.849L200.564 169.723C198.38 156.736 197.461 140.493 197.064 129.202C197.008 127.453 196.957 125.82 196.918 124.332C196.918 124.259 196.918 124.187 196.918 124.114C196.845 121.172 196.812 118.834 196.795 117.35C196.795 116.191 196.795 115.558 196.795 115.558L207.138 116.143L206.696 119.863L206.046 125.322L205.917 126.395L205.469 130.115L204.26 140.111C206.903 152.19 203.431 169.849 203.431 169.849Z" fill="#E4897B"/>
<path d="M204.507 169.366C204.507 169.056 200.083 169.298 200.083 169.298C200.083 169.298 197.367 171.68 194.729 172.197C192.092 172.714 193.57 174.101 196.516 174.101H203.796C205.901 174.12 204.591 172.579 204.507 169.366Z" fill="#263238"/>
<path d="M197.372 170.182C197.308 170.132 197.264 170.067 197.245 169.994C197.226 169.921 197.233 169.846 197.266 169.777C197.283 169.723 197.313 169.672 197.353 169.628C197.394 169.584 197.444 169.548 197.501 169.521C197.815 169.41 198.158 169.377 198.492 169.424C198.134 169.26 197.82 169.062 197.803 168.859C197.803 168.728 197.893 168.622 198.095 168.54C198.183 168.505 198.278 168.488 198.375 168.488C198.471 168.488 198.567 168.505 198.655 168.54C199.254 168.757 199.623 169.646 199.64 169.68C199.652 169.705 199.652 169.733 199.64 169.757V169.781C199.63 169.792 199.616 169.8 199.601 169.806C199.03 170.058 198.412 170.221 197.775 170.289C197.63 170.297 197.487 170.259 197.372 170.182ZM197.619 169.699C197.588 169.713 197.561 169.731 197.539 169.753C197.517 169.776 197.5 169.802 197.49 169.83C197.445 169.98 197.49 170.018 197.49 170.033C197.703 170.182 198.509 169.97 199.17 169.733C198.667 169.596 198.13 169.583 197.619 169.695V169.699ZM198.179 168.733C198.117 168.733 198.016 168.806 198.022 168.859C198.022 169.028 198.666 169.342 199.315 169.54C199.171 169.205 198.906 168.919 198.559 168.723C198.503 168.701 198.442 168.689 198.38 168.69C198.316 168.689 198.253 168.701 198.195 168.723L198.179 168.733Z" fill="#263238"/>
<path d="M180.88 169.366C180.88 169.056 176.462 169.298 176.462 169.298C176.462 169.298 173.746 171.68 171.108 172.197C168.47 172.714 169.943 174.101 172.889 174.101H180.169C182.28 174.12 180.975 172.579 180.88 169.366Z" fill="#263238"/>
<path d="M173.751 170.182C173.688 170.132 173.645 170.066 173.626 169.994C173.607 169.921 173.613 169.846 173.645 169.777C173.662 169.723 173.692 169.672 173.732 169.628C173.773 169.584 173.823 169.548 173.88 169.521C174.194 169.41 174.537 169.377 174.871 169.424C174.513 169.26 174.199 169.062 174.188 168.859C174.188 168.73 174.283 168.624 174.473 168.54C174.561 168.505 174.657 168.488 174.753 168.488C174.85 168.488 174.945 168.505 175.033 168.54C175.633 168.757 176.002 169.646 176.019 169.68C176.026 169.692 176.029 169.705 176.029 169.719C176.029 169.732 176.026 169.745 176.019 169.757C176.019 169.757 176.019 169.757 176.019 169.781L175.98 169.806C175.406 170.057 174.787 170.221 174.149 170.289C174.006 170.295 173.865 170.257 173.751 170.182ZM173.997 169.699C173.968 169.713 173.941 169.731 173.92 169.754C173.899 169.776 173.883 169.802 173.874 169.83C173.829 169.98 173.874 170.018 173.902 170.033C174.109 170.182 174.916 169.97 175.582 169.733C175.069 169.591 174.519 169.577 173.997 169.695V169.699ZM174.557 168.733C174.496 168.733 174.395 168.806 174.401 168.859C174.401 169.028 175.045 169.342 175.7 169.54C175.553 169.205 175.286 168.919 174.938 168.723C174.882 168.7 174.821 168.689 174.759 168.69C174.695 168.689 174.632 168.701 174.574 168.723L174.557 168.733Z" fill="#263238"/>
<path d="M182.201 121.042L184.587 106.547V96.7395C190.876 92.6617 203 92.6617 203 92.6617C203 92.6617 212.312 103.808 207.788 122.134L196.095 123.583L195.35 120.162L193.883 123.583L182.201 121.042Z" fill="#263238"/>
<path opacity="0.2" d="M182.201 121.042L184.587 106.547V96.7395C190.876 92.6617 203 92.6617 203 92.6617C203 92.6617 212.312 103.808 207.788 122.134L196.095 123.583L195.35 120.162L193.883 123.583L182.201 121.042Z" fill="white"/>
<path opacity="0.2" d="M195.352 120.216L197.592 114.181C197.592 114.181 199.955 113.563 202.99 109.514C203.001 109.514 202.475 116.404 195.352 120.216Z" fill="black"/>
<path opacity="0.2" d="M190.367 99.5277L195.614 99.0977C196.452 100.79 196.742 102.647 196.454 104.47L193.094 106.214L190.658 104.721C190.658 104.721 190.58 100.89 190.367 99.5277Z" fill="black"/>
<path opacity="0.2" d="M203 98.4208C203.704 99.914 204.224 101.467 204.551 103.054L206.41 103.735L207.413 102.658C207.413 102.658 206.735 99.5031 205.587 97.957L203 98.4208Z" fill="black"/>
<path d="M181.983 120.216L194.393 123.356L193.614 124.796L181.826 121.665L181.983 120.216Z" fill="#263238"/>
<path d="M195.613 123.148L195.82 124.472L207.989 123.148L208.174 121.481L195.613 123.148Z" fill="#263238"/>
<path d="M198.168 94.6961C200.158 94.406 202.17 94.2365 204.188 94.1888L203.437 93.121C201.475 93.0763 199.511 93.1765 197.568 93.4206L198.168 94.6961Z" fill="#263238"/>
<path d="M187.006 96.0101C185.399 96.6092 184.475 97.0586 184.475 97.0586V98.3775C185.378 97.9846 186.283 97.6254 187.191 97.3001L187.006 96.0101Z" fill="#263238"/>
<path d="M187.78 97.1115C190.893 96.0587 194.122 95.2832 197.418 94.7972L196.858 93.5121C193.663 93.9717 190.54 94.7466 187.551 95.8215L187.78 97.1115Z" fill="#263238"/>
<path d="M154.135 100.885L150.955 99.7837L150.395 102.373C150.395 102.373 153.262 103.871 154.46 102.088L154.135 100.885Z" fill="#E4897B"/>
<path d="M149.375 99.9431L148.355 101.943L150.416 102.373L150.954 99.7837L149.375 99.9431Z" fill="#E4897B"/>
<path d="M202.949 73.0512L202.574 70.1137L199.673 70.9254C199.673 70.9254 199.494 73.8243 201.885 73.8822L202.949 73.0512Z" fill="#E4897B"/>
<path d="M201.662 68.9878L199.137 69.1617L199.674 70.9252L202.575 70.1135L201.662 68.9878Z" fill="#E4897B"/>
<path opacity="0.2" d="M179.162 91.9375C178.277 91.1113 177.353 90.2416 176.462 89.3816C176.121 87.5843 175.902 85.9996 175.902 85.9996C176.969 86.6823 177.824 87.5812 178.393 88.6168C178.961 89.6524 179.225 90.7929 179.162 91.9375Z" fill="black"/>
<path d="M176.226 85.168C174.944 89.6297 173.007 93.9321 170.464 97.9713C167.944 102.102 158.362 102.6 153.546 102.706L153.322 100.6C156.223 100.01 165.239 98.4593 166.471 96.203C168.482 92.2939 170.138 88.2555 171.421 84.1245L176.226 85.1584V85.168Z" fill="#DC897C"/>
<path d="M173.483 81.5256C170.744 83.0716 169.277 87.0914 168.812 89.0578L174.502 92.6717L177.375 90.256C178.54 84.7095 174.524 80.941 173.483 81.5256Z" fill="#FB4774"/>
<path opacity="0.6" d="M173.483 81.5256C170.744 83.0716 169.277 87.0914 168.812 89.0578L174.502 92.6717L177.375 90.256C178.54 84.7095 174.524 80.941 173.483 81.5256Z" fill="white"/>
<path d="M201.258 73.9934L197.193 74.3703C197.135 74.3717 197.078 74.3629 197.025 74.3443C196.972 74.3257 196.924 74.2978 196.884 74.2624C196.844 74.227 196.813 74.1848 196.793 74.1385C196.773 74.0922 196.764 74.0428 196.767 73.9934L196.521 66.5675C196.513 66.4626 196.549 66.3587 196.623 66.2752C196.698 66.1917 196.804 66.1342 196.924 66.1134L200.984 65.7414C201.041 65.7392 201.099 65.7475 201.152 65.7659C201.206 65.7842 201.254 65.812 201.294 65.8476C201.335 65.8832 201.366 65.9257 201.385 65.9723C201.405 66.0189 201.413 66.0687 201.409 66.1182L201.656 73.5441C201.664 73.6478 201.628 73.7505 201.555 73.8331C201.481 73.9157 201.376 73.9727 201.258 73.9934Z" fill="#263238"/>
<path opacity="0.6" d="M201.258 73.9934L197.193 74.3703C197.135 74.3717 197.078 74.3629 197.025 74.3443C196.972 74.3257 196.924 74.2978 196.884 74.2624C196.844 74.227 196.813 74.1848 196.793 74.1385C196.773 74.0922 196.764 74.0428 196.767 73.9934L196.521 66.5675C196.513 66.4626 196.549 66.3587 196.623 66.2752C196.698 66.1917 196.804 66.1342 196.924 66.1134L200.984 65.7414C201.041 65.7392 201.099 65.7475 201.152 65.7659C201.206 65.7842 201.254 65.812 201.294 65.8476C201.335 65.8832 201.366 65.9257 201.385 65.9723C201.405 66.0189 201.413 66.0687 201.409 66.1182L201.656 73.5441C201.664 73.6478 201.628 73.7505 201.555 73.8331C201.481 73.9157 201.376 73.9727 201.258 73.9934Z" fill="white"/>
<path d="M200.9 74.0272L196.84 74.3992C196.782 74.402 196.725 74.3943 196.671 74.3766C196.617 74.3589 196.568 74.3316 196.528 74.2965C196.487 74.2614 196.455 74.2192 196.435 74.1728C196.414 74.1264 196.405 74.0768 196.409 74.0272L196.168 66.5964C196.157 66.4923 196.192 66.3886 196.266 66.3055C196.339 66.2224 196.446 66.166 196.565 66.1471L200.625 65.7751C200.682 65.773 200.739 65.7812 200.792 65.7992C200.846 65.8173 200.894 65.8447 200.934 65.8797C200.974 65.9148 201.005 65.9567 201.025 66.0027C201.045 66.0488 201.054 66.098 201.051 66.1471L201.297 73.5779C201.308 73.682 201.273 73.7857 201.199 73.8688C201.126 73.9519 201.019 74.0084 200.9 74.0272Z" fill="#263238"/>
<path opacity="0.7" d="M200.9 74.0272L196.84 74.3992C196.782 74.402 196.725 74.3943 196.671 74.3766C196.617 74.3589 196.568 74.3316 196.528 74.2965C196.487 74.2614 196.455 74.2192 196.435 74.1728C196.414 74.1264 196.405 74.0768 196.409 74.0272L196.168 66.5964C196.157 66.4923 196.192 66.3886 196.266 66.3055C196.339 66.2224 196.446 66.166 196.565 66.1471L200.625 65.7751C200.682 65.773 200.739 65.7812 200.792 65.7992C200.846 65.8173 200.894 65.8447 200.934 65.8797C200.974 65.9148 201.005 65.9567 201.025 66.0027C201.045 66.0488 201.054 66.098 201.051 66.1471L201.297 73.5779C201.308 73.682 201.273 73.7857 201.199 73.8688C201.126 73.9519 201.019 74.0084 200.9 74.0272Z" fill="white"/>
<path d="M200.631 65.9199L199.567 66.0165L199.433 66.3016L197.786 66.4513L197.635 66.1953L196.571 66.2919C196.494 66.3058 196.425 66.3433 196.378 66.3975C196.331 66.4517 196.308 66.5189 196.313 66.5866L196.554 74.0125C196.552 74.0448 196.557 74.0772 196.57 74.1075C196.584 74.1377 196.604 74.1652 196.631 74.1881C196.657 74.211 196.689 74.2287 196.724 74.2401C196.759 74.2515 196.797 74.2563 196.834 74.2541L200.894 73.8821C200.971 73.8693 201.039 73.8327 201.087 73.7793C201.134 73.7259 201.157 73.6593 201.152 73.5922L200.911 66.1615C200.913 66.1294 200.906 66.0973 200.893 66.0674C200.879 66.0375 200.859 66.0103 200.832 65.9876C200.806 65.9649 200.775 65.9471 200.74 65.9355C200.705 65.9238 200.668 65.9185 200.631 65.9199Z" fill="#FB4774"/>
<path opacity="0.8" d="M200.089 68.6062L197.104 68.8816C197.067 68.883 197.031 68.8778 196.997 68.8663C196.963 68.8549 196.932 68.8375 196.906 68.8153C196.88 68.793 196.86 68.7664 196.847 68.737C196.834 68.7077 196.828 68.6763 196.829 68.6448V67.9298C196.822 67.8631 196.844 67.7966 196.891 67.7431C196.937 67.6895 197.005 67.6528 197.081 67.6399L200.072 67.3645C200.108 67.3638 200.145 67.3696 200.178 67.3816C200.212 67.3936 200.243 67.4115 200.268 67.4343C200.293 67.457 200.313 67.484 200.325 67.5136C200.338 67.5431 200.343 67.5746 200.341 67.6061L200.369 68.3211C200.373 68.3906 200.347 68.459 200.295 68.5121C200.243 68.5651 200.169 68.5989 200.089 68.6062Z" fill="white"/>
<path d="M78.8445 110.302C78.745 110.302 78.6564 110.294 78.5785 110.277C78.5006 110.263 78.4467 110.248 78.4169 110.233L78.5661 109.716C78.7086 109.752 78.8345 109.765 78.9439 109.755C79.0533 109.745 79.1502 109.697 79.2347 109.609C79.3209 109.523 79.3996 109.383 79.4709 109.189L79.5803 108.89L78.1683 105.052H78.8047L79.8587 108.095H79.8984L80.9524 105.052H81.5888L79.968 109.427C79.8951 109.625 79.8048 109.788 79.6971 109.917C79.5894 110.048 79.4643 110.145 79.3217 110.208C79.1809 110.271 79.0218 110.302 78.8445 110.302ZM83.7775 108.95C83.4328 108.95 83.1304 108.868 82.8702 108.704C82.6117 108.54 82.4095 108.31 82.2637 108.015C82.1195 107.72 82.0474 107.376 82.0474 106.981C82.0474 106.584 82.1195 106.236 82.2637 105.94C82.4095 105.643 82.6117 105.413 82.8702 105.249C83.1304 105.085 83.4328 105.003 83.7775 105.003C84.1222 105.003 84.4238 105.085 84.6824 105.249C84.9425 105.413 85.1447 105.643 85.2889 105.94C85.4347 106.236 85.5076 106.584 85.5076 106.981C85.5076 107.376 85.4347 107.72 85.2889 108.015C85.1447 108.31 84.9425 108.54 84.6824 108.704C84.4238 108.868 84.1222 108.95 83.7775 108.95ZM83.7775 108.423C84.0394 108.423 84.2548 108.356 84.4238 108.222C84.5929 108.087 84.718 107.911 84.7992 107.692C84.8804 107.473 84.921 107.236 84.921 106.981C84.921 106.726 84.8804 106.488 84.7992 106.268C84.718 106.047 84.5929 105.869 84.4238 105.733C84.2548 105.598 84.0394 105.53 83.7775 105.53C83.5157 105.53 83.3002 105.598 83.1312 105.733C82.9622 105.869 82.8371 106.047 82.7559 106.268C82.6747 106.488 82.6341 106.726 82.6341 106.981C82.6341 107.236 82.6747 107.473 82.7559 107.692C82.8371 107.911 82.9622 108.087 83.1312 108.222C83.3002 108.356 83.5157 108.423 83.7775 108.423ZM88.8094 107.309V105.052H89.396V108.87H88.8094V108.224H88.7696C88.6801 108.418 88.5409 108.583 88.352 108.719C88.1631 108.853 87.9244 108.92 87.6361 108.92C87.3975 108.92 87.1853 108.868 86.9997 108.764C86.8141 108.658 86.6683 108.498 86.5622 108.286C86.4562 108.073 86.4031 107.803 86.4031 107.478V105.052H86.9898V107.439C86.9898 107.717 87.0677 107.939 87.2235 108.105C87.3809 108.271 87.5814 108.353 87.825 108.353C87.9709 108.353 88.1192 108.316 88.27 108.242C88.4224 108.167 88.55 108.053 88.6528 107.899C88.7572 107.744 88.8094 107.548 88.8094 107.309ZM90.4705 108.87V105.052H91.0373V105.629H91.0771C91.1467 105.44 91.2726 105.287 91.4549 105.169C91.6372 105.051 91.8427 104.993 92.0714 104.993C92.1145 104.993 92.1683 104.993 92.233 104.995C92.2976 104.997 92.3465 104.999 92.3796 105.003V105.599C92.3597 105.594 92.3142 105.587 92.2429 105.577C92.1733 105.565 92.0996 105.559 92.0217 105.559C91.8361 105.559 91.6703 105.598 91.5245 105.676C91.3803 105.752 91.266 105.859 91.1815 105.994C91.0986 106.129 91.0572 106.282 91.0572 106.454V108.87H90.4705ZM94.5597 108.95C94.1918 108.95 93.8744 108.869 93.6076 108.706C93.3424 108.542 93.1378 108.314 92.9936 108.02C92.8511 107.725 92.7798 107.382 92.7798 106.991C92.7798 106.6 92.8511 106.255 92.9936 105.957C93.1378 105.657 93.3383 105.424 93.5952 105.256C93.8537 105.087 94.1553 105.003 94.5 105.003C94.6989 105.003 94.8952 105.036 95.0891 105.102C95.283 105.168 95.4595 105.276 95.6186 105.425C95.7777 105.573 95.9045 105.768 95.9989 106.012C96.0934 106.255 96.1406 106.555 96.1406 106.912V107.16H93.1974V106.653H95.544C95.544 106.438 95.5009 106.245 95.4148 106.076C95.3303 105.907 95.2093 105.774 95.0518 105.676C94.8961 105.578 94.7121 105.53 94.5 105.53C94.2663 105.53 94.0642 105.588 93.8935 105.704C93.7244 105.818 93.5943 105.967 93.5032 106.151C93.4121 106.335 93.3665 106.532 93.3665 106.743V107.081C93.3665 107.369 93.4162 107.613 93.5156 107.814C93.6167 108.013 93.7567 108.165 93.9357 108.269C94.1147 108.372 94.3227 108.423 94.5597 108.423C94.7138 108.423 94.853 108.401 94.9773 108.358C95.1032 108.314 95.2118 108.247 95.3029 108.16C95.3941 108.07 95.4645 107.959 95.5142 107.826L96.081 107.986C96.0213 108.178 95.921 108.347 95.7802 108.493C95.6393 108.637 95.4653 108.75 95.2582 108.831C95.051 108.91 94.8182 108.95 94.5597 108.95ZM97.033 108.87V105.052H97.5998V105.649H97.6495C97.729 105.445 97.8575 105.287 98.0348 105.174C98.2121 105.06 98.4251 105.003 98.6737 105.003C98.9255 105.003 99.1352 105.06 99.3026 105.174C99.4716 105.287 99.6033 105.445 99.6978 105.649H99.7376C99.8353 105.452 99.982 105.295 100.178 105.179C100.373 105.061 100.608 105.003 100.881 105.003C101.222 105.003 101.502 105.109 101.719 105.323C101.936 105.535 102.044 105.866 102.044 106.315V108.87H101.458V106.315C101.458 106.033 101.381 105.832 101.227 105.711C101.072 105.59 100.891 105.53 100.682 105.53C100.414 105.53 100.206 105.611 100.058 105.773C99.9107 105.934 99.837 106.138 99.837 106.385V108.87H99.2404V106.255C99.2404 106.038 99.17 105.863 99.0291 105.731C98.8883 105.597 98.7068 105.53 98.4847 105.53C98.3323 105.53 98.1897 105.57 98.0572 105.651C97.9263 105.733 97.8202 105.845 97.739 105.989C97.6594 106.132 97.6197 106.297 97.6197 106.484V108.87H97.033ZM104.241 108.96C103.999 108.96 103.779 108.914 103.582 108.823C103.385 108.73 103.228 108.597 103.112 108.423C102.996 108.247 102.938 108.035 102.938 107.787C102.938 107.568 102.981 107.391 103.067 107.255C103.153 107.117 103.269 107.009 103.413 106.932C103.557 106.854 103.716 106.796 103.89 106.758C104.066 106.718 104.242 106.686 104.42 106.663C104.652 106.633 104.84 106.611 104.984 106.596C105.13 106.579 105.236 106.552 105.302 106.514C105.37 106.476 105.404 106.41 105.404 106.315V106.295C105.404 106.05 105.337 105.859 105.203 105.723C105.07 105.588 104.869 105.52 104.599 105.52C104.318 105.52 104.099 105.581 103.94 105.704C103.781 105.826 103.669 105.957 103.604 106.096L103.047 105.897C103.147 105.665 103.279 105.485 103.445 105.356C103.613 105.225 103.795 105.134 103.992 105.082C104.191 105.029 104.386 105.003 104.579 105.003C104.701 105.003 104.842 105.018 105.001 105.047C105.162 105.076 105.317 105.134 105.466 105.224C105.617 105.313 105.742 105.448 105.841 105.629C105.941 105.81 105.991 106.052 105.991 106.355V108.87H105.404V108.353H105.374C105.334 108.436 105.268 108.525 105.175 108.619C105.082 108.714 104.959 108.794 104.805 108.861C104.651 108.927 104.463 108.96 104.241 108.96ZM104.33 108.433C104.562 108.433 104.758 108.387 104.917 108.296C105.077 108.205 105.198 108.087 105.28 107.943C105.363 107.799 105.404 107.647 105.404 107.488V106.951C105.379 106.981 105.324 107.009 105.24 107.033C105.157 107.057 105.061 107.077 104.952 107.096C104.844 107.112 104.739 107.127 104.636 107.14C104.535 107.152 104.453 107.162 104.39 107.17C104.237 107.19 104.095 107.222 103.962 107.267C103.831 107.31 103.725 107.376 103.644 107.464C103.564 107.55 103.525 107.667 103.525 107.817C103.525 108.02 103.6 108.174 103.751 108.279C103.903 108.382 104.096 108.433 104.33 108.433ZM107.061 108.87V105.052H107.648V108.87H107.061ZM107.36 104.416C107.245 104.416 107.147 104.377 107.064 104.299C106.983 104.221 106.942 104.128 106.942 104.018C106.942 103.909 106.983 103.815 107.064 103.737C107.147 103.659 107.245 103.62 107.36 103.62C107.474 103.62 107.572 103.659 107.653 103.737C107.736 103.815 107.777 103.909 107.777 104.018C107.777 104.128 107.736 104.221 107.653 104.299C107.572 104.377 107.474 104.416 107.36 104.416ZM109.309 103.78V108.87H108.722V103.78H109.309ZM113.317 110.213C112.81 110.213 112.361 110.143 111.972 110.004C111.583 109.866 111.255 109.663 110.99 109.395C110.725 109.127 110.524 108.798 110.389 108.408C110.253 108.019 110.185 107.573 110.185 107.071C110.185 106.585 110.254 106.151 110.391 105.768C110.53 105.385 110.732 105.061 110.995 104.794C111.26 104.525 111.582 104.321 111.96 104.18C112.339 104.039 112.768 103.968 113.247 103.968C113.713 103.968 114.121 104.045 114.47 104.197C114.822 104.348 115.115 104.553 115.35 104.811C115.587 105.068 115.765 105.357 115.882 105.679C116.002 106 116.061 106.332 116.061 106.673C116.061 106.913 116.05 107.157 116.026 107.404C116.003 107.651 115.954 107.878 115.88 108.085C115.805 108.29 115.69 108.456 115.534 108.582C115.38 108.708 115.171 108.771 114.908 108.771C114.792 108.771 114.664 108.753 114.525 108.716C114.386 108.68 114.262 108.619 114.155 108.535C114.047 108.45 113.983 108.337 113.963 108.194H113.933C113.894 108.29 113.832 108.382 113.749 108.468C113.668 108.554 113.561 108.623 113.429 108.674C113.298 108.725 113.138 108.748 112.949 108.741C112.734 108.733 112.544 108.685 112.38 108.597C112.216 108.508 112.078 108.387 111.967 108.234C111.858 108.08 111.775 107.902 111.718 107.7C111.664 107.496 111.636 107.276 111.636 107.041C111.636 106.817 111.67 106.613 111.736 106.427C111.802 106.241 111.894 106.079 112.012 105.94C112.131 105.801 112.27 105.689 112.429 105.607C112.59 105.522 112.763 105.47 112.949 105.45C113.115 105.433 113.265 105.441 113.401 105.472C113.537 105.502 113.649 105.548 113.737 105.609C113.825 105.669 113.88 105.735 113.903 105.808H113.933V105.53H114.46V107.777C114.46 107.916 114.499 108.039 114.577 108.145C114.655 108.251 114.769 108.304 114.918 108.304C115.087 108.304 115.216 108.246 115.305 108.13C115.397 108.014 115.459 107.835 115.492 107.593C115.527 107.351 115.544 107.041 115.544 106.663C115.544 106.441 115.513 106.222 115.452 106.007C115.392 105.79 115.301 105.587 115.179 105.398C115.058 105.209 114.904 105.042 114.719 104.898C114.533 104.754 114.315 104.641 114.065 104.56C113.816 104.477 113.534 104.436 113.217 104.436C112.828 104.436 112.479 104.496 112.171 104.617C111.864 104.737 111.603 104.911 111.388 105.142C111.174 105.37 111.011 105.649 110.898 105.977C110.787 106.303 110.732 106.675 110.732 107.091C110.732 107.513 110.787 107.889 110.898 108.217C111.011 108.545 111.177 108.822 111.395 109.047C111.616 109.272 111.888 109.443 112.213 109.559C112.538 109.677 112.912 109.736 113.337 109.736C113.519 109.736 113.699 109.718 113.876 109.683C114.053 109.649 114.21 109.61 114.346 109.569C114.482 109.528 114.58 109.497 114.639 109.477L114.778 109.934C114.676 109.977 114.542 110.021 114.376 110.064C114.212 110.107 114.036 110.142 113.849 110.171C113.663 110.199 113.486 110.213 113.317 110.213ZM113.028 108.234C113.251 108.234 113.43 108.189 113.568 108.1C113.705 108.01 113.806 107.875 113.869 107.695C113.932 107.514 113.963 107.286 113.963 107.011C113.963 106.733 113.928 106.516 113.859 106.36C113.789 106.204 113.686 106.095 113.551 106.032C113.415 105.969 113.247 105.937 113.048 105.937C112.859 105.937 112.698 105.987 112.564 106.086C112.431 106.184 112.329 106.315 112.258 106.479C112.188 106.642 112.153 106.819 112.153 107.011C112.153 107.223 112.182 107.423 112.238 107.61C112.294 107.796 112.386 107.947 112.514 108.063C112.642 108.177 112.813 108.234 113.028 108.234ZM116.939 108.87V105.052H117.506V105.649H117.556C117.635 105.445 117.764 105.287 117.941 105.174C118.118 105.06 118.331 105.003 118.58 105.003C118.832 105.003 119.041 105.06 119.209 105.174C119.378 105.287 119.51 105.445 119.604 105.649H119.644C119.742 105.452 119.888 105.295 120.084 105.179C120.279 105.061 120.514 105.003 120.787 105.003C121.129 105.003 121.408 105.109 121.625 105.323C121.842 105.535 121.951 105.866 121.951 106.315V108.87H121.364V106.315C121.364 106.033 121.287 105.832 121.133 105.711C120.979 105.59 120.797 105.53 120.588 105.53C120.32 105.53 120.112 105.611 119.964 105.773C119.817 105.934 119.743 106.138 119.743 106.385V108.87H119.147V106.255C119.147 106.038 119.076 105.863 118.935 105.731C118.795 105.597 118.613 105.53 118.391 105.53C118.239 105.53 118.096 105.57 117.963 105.651C117.833 105.733 117.726 105.845 117.645 105.989C117.566 106.132 117.526 106.297 117.526 106.484V108.87H116.939ZM124.147 108.96C123.905 108.96 123.685 108.914 123.488 108.823C123.291 108.73 123.134 108.597 123.018 108.423C122.902 108.247 122.844 108.035 122.844 107.787C122.844 107.568 122.887 107.391 122.974 107.255C123.06 107.117 123.175 107.009 123.319 106.932C123.463 106.854 123.622 106.796 123.796 106.758C123.972 106.718 124.148 106.686 124.326 106.663C124.558 106.633 124.746 106.611 124.89 106.596C125.036 106.579 125.142 106.552 125.208 106.514C125.276 106.476 125.31 106.41 125.31 106.315V106.295C125.31 106.05 125.243 105.859 125.109 105.723C124.976 105.588 124.775 105.52 124.505 105.52C124.225 105.52 124.005 105.581 123.846 105.704C123.687 105.826 123.575 105.957 123.51 106.096L122.954 105.897C123.053 105.665 123.186 105.485 123.351 105.356C123.519 105.225 123.701 105.134 123.898 105.082C124.097 105.029 124.293 105.003 124.485 105.003C124.608 105.003 124.748 105.018 124.907 105.047C125.068 105.076 125.223 105.134 125.372 105.224C125.523 105.313 125.648 105.448 125.748 105.629C125.847 105.81 125.897 106.052 125.897 106.355V108.87H125.31V108.353H125.28C125.241 108.436 125.174 108.525 125.081 108.619C124.989 108.714 124.865 108.794 124.711 108.861C124.557 108.927 124.369 108.96 124.147 108.96ZM124.236 108.433C124.468 108.433 124.664 108.387 124.823 108.296C124.984 108.205 125.105 108.087 125.186 107.943C125.269 107.799 125.31 107.647 125.31 107.488V106.951C125.285 106.981 125.231 107.009 125.146 107.033C125.063 107.057 124.967 107.077 124.858 107.096C124.75 107.112 124.645 107.127 124.542 107.14C124.441 107.152 124.359 107.162 124.296 107.17C124.144 107.19 124.001 107.222 123.868 107.267C123.738 107.31 123.631 107.376 123.55 107.464C123.471 107.55 123.431 107.667 123.431 107.817C123.431 108.02 123.506 108.174 123.657 108.279C123.81 108.382 124.003 108.433 124.236 108.433ZM126.968 108.87V105.052H127.554V108.87H126.968ZM127.266 104.416C127.152 104.416 127.053 104.377 126.97 104.299C126.889 104.221 126.848 104.128 126.848 104.018C126.848 103.909 126.889 103.815 126.97 103.737C127.053 103.659 127.152 103.62 127.266 103.62C127.38 103.62 127.478 103.659 127.559 103.737C127.642 103.815 127.684 103.909 127.684 104.018C127.684 104.128 127.642 104.221 127.559 104.299C127.478 104.377 127.38 104.416 127.266 104.416ZM129.215 103.78V108.87H128.629V103.78H129.215ZM130.717 108.91C130.595 108.91 130.49 108.866 130.402 108.779C130.314 108.691 130.27 108.585 130.27 108.463C130.27 108.34 130.314 108.235 130.402 108.147C130.49 108.059 130.595 108.015 130.717 108.015C130.84 108.015 130.945 108.059 131.033 108.147C131.121 108.235 131.165 108.34 131.165 108.463C131.165 108.544 131.144 108.619 131.103 108.687C131.063 108.754 131.009 108.809 130.941 108.851C130.875 108.89 130.8 108.91 130.717 108.91ZM133.769 108.95C133.411 108.95 133.103 108.866 132.844 108.696C132.585 108.527 132.387 108.295 132.247 107.998C132.108 107.701 132.039 107.362 132.039 106.981C132.039 106.593 132.11 106.251 132.252 105.955C132.397 105.656 132.597 105.424 132.854 105.256C133.112 105.087 133.414 105.003 133.759 105.003C134.027 105.003 134.269 105.052 134.485 105.152C134.7 105.251 134.877 105.39 135.014 105.569C135.152 105.748 135.237 105.957 135.27 106.196H134.684C134.639 106.022 134.539 105.868 134.385 105.733C134.233 105.598 134.027 105.53 133.769 105.53C133.54 105.53 133.34 105.589 133.167 105.709C132.996 105.826 132.863 105.993 132.767 106.208C132.672 106.422 132.625 106.673 132.625 106.961C132.625 107.256 132.672 107.513 132.764 107.732C132.859 107.951 132.992 108.121 133.162 108.242C133.335 108.363 133.537 108.423 133.769 108.423C133.921 108.423 134.06 108.397 134.184 108.343C134.308 108.29 134.413 108.214 134.5 108.115C134.586 108.015 134.647 107.896 134.684 107.757H135.27C135.237 107.982 135.155 108.185 135.024 108.366C134.895 108.545 134.723 108.687 134.509 108.793C134.297 108.898 134.05 108.95 133.769 108.95ZM137.679 108.95C137.334 108.95 137.032 108.868 136.772 108.704C136.513 108.54 136.311 108.31 136.165 108.015C136.021 107.72 135.949 107.376 135.949 106.981C135.949 106.584 136.021 106.236 136.165 105.94C136.311 105.643 136.513 105.413 136.772 105.249C137.032 105.085 137.334 105.003 137.679 105.003C138.024 105.003 138.325 105.085 138.584 105.249C138.844 105.413 139.046 105.643 139.19 105.94C139.336 106.236 139.409 106.584 139.409 106.981C139.409 107.376 139.336 107.72 139.19 108.015C139.046 108.31 138.844 108.54 138.584 108.704C138.325 108.868 138.024 108.95 137.679 108.95ZM137.679 108.423C137.941 108.423 138.156 108.356 138.325 108.222C138.494 108.087 138.619 107.911 138.701 107.692C138.782 107.473 138.822 107.236 138.822 106.981C138.822 106.726 138.782 106.488 138.701 106.268C138.619 106.047 138.494 105.869 138.325 105.733C138.156 105.598 137.941 105.53 137.679 105.53C137.417 105.53 137.202 105.598 137.033 105.733C136.864 105.869 136.738 106.047 136.657 106.268C136.576 106.488 136.535 106.726 136.535 106.981C136.535 107.236 136.576 107.473 136.657 107.692C136.738 107.911 136.864 108.087 137.033 108.222C137.202 108.356 137.417 108.423 137.679 108.423ZM140.305 108.87V105.052H140.871V105.649H140.921C141.001 105.445 141.129 105.287 141.306 105.174C141.484 105.06 141.697 105.003 141.945 105.003C142.197 105.003 142.407 105.06 142.574 105.174C142.743 105.287 142.875 105.445 142.969 105.649H143.009C143.107 105.452 143.253 105.295 143.449 105.179C143.645 105.061 143.879 105.003 144.153 105.003C144.494 105.003 144.773 105.109 144.99 105.323C145.207 105.535 145.316 105.866 145.316 106.315V108.87H144.729V106.315C144.729 106.033 144.652 105.832 144.498 105.711C144.344 105.59 144.162 105.53 143.954 105.53C143.685 105.53 143.477 105.611 143.33 105.773C143.182 105.934 143.108 106.138 143.108 106.385V108.87H142.512V106.255C142.512 106.038 142.441 105.863 142.301 105.731C142.16 105.597 141.978 105.53 141.756 105.53C141.604 105.53 141.461 105.57 141.329 105.651C141.198 105.733 141.092 105.845 141.01 105.989C140.931 106.132 140.891 106.297 140.891 106.484V108.87H140.305Z" fill="black"/>
</svg>
