<svg width="280" height="180" viewBox="0 0 280 180" fill="none" xmlns="http://www.w3.org/2000/svg">
<path d="M280 158.181H0V158.302H280V158.181Z" fill="#EBEBEB"/>
<path d="M251.944 165.955H233.396V166.076H251.944V165.955Z" fill="#EBEBEB"/>
<path d="M185.484 167.269H180.617V167.39H185.484V167.269Z" fill="#EBEBEB"/>
<path d="M232.836 161.472H222.09V161.592H232.836V161.472Z" fill="#EBEBEB"/>
<path d="M53.5634 162.283H29.377V162.404H53.5634V162.283Z" fill="#EBEBEB"/>
<path d="M62.0975 162.283H58.5527V162.404H62.0975V162.283Z" fill="#EBEBEB"/>
<path d="M126.084 164.322H73.623V164.443H126.084V164.322Z" fill="#EBEBEB"/>
<path d="M132.721 136.633H24.5904C23.7434 136.632 22.9315 136.341 22.333 135.823C21.7346 135.306 21.3984 134.605 21.3984 133.874V2.73459C21.4058 2.00796 21.7452 1.31317 22.3428 0.801158C22.9405 0.289141 23.7482 0.00124477 24.5904 0H132.721C133.569 0 134.382 0.290653 134.982 0.808019C135.582 1.32539 135.918 2.02708 135.918 2.75875V133.874C135.918 134.606 135.582 135.308 134.982 135.825C134.382 136.342 133.569 136.633 132.721 136.633ZM24.5904 0.0966291C23.7805 0.097909 23.0042 0.3764 22.432 0.870976C21.8598 1.36555 21.5384 2.0358 21.5384 2.73459V133.874C21.5384 134.573 21.8598 135.243 22.432 135.738C23.0042 136.232 23.7805 136.511 24.5904 136.512H132.721C133.531 136.511 134.308 136.233 134.881 135.738C135.454 135.244 135.777 134.574 135.778 133.874V2.73459C135.777 2.03535 135.454 1.36512 134.881 0.870681C134.308 0.376243 133.531 0.0979063 132.721 0.0966291H24.5904Z" fill="#EBEBEB"/>
<path d="M253.853 136.633H145.717C144.87 136.632 144.057 136.341 143.458 135.824C142.858 135.307 142.521 134.606 142.52 133.874V2.73459C142.528 2.00752 142.869 1.31274 143.468 0.800856C144.066 0.288972 144.874 0.00123119 145.717 0H253.853C254.694 0.00251452 255.501 0.290973 256.097 0.802853C256.694 1.31473 257.032 2.00879 257.04 2.73459V133.874C257.04 134.604 256.704 135.305 256.107 135.822C255.51 136.339 254.699 136.63 253.853 136.633ZM145.717 0.0966291C144.907 0.0979063 144.13 0.376243 143.557 0.870681C142.984 1.36512 142.661 2.03535 142.66 2.73459V133.874C142.661 134.574 142.984 135.244 143.557 135.738C144.13 136.233 144.907 136.511 145.717 136.512H253.853C254.664 136.511 255.44 136.233 256.014 135.738C256.587 135.244 256.909 134.574 256.911 133.874V2.73459C256.909 2.03535 256.587 1.36512 256.014 0.870681C255.44 0.376243 254.664 0.0979063 253.853 0.0966291H145.717Z" fill="#EBEBEB"/>
<path d="M124.705 62.1948H37.043V157.964H124.705V62.1948Z" fill="#F0F0F0"/>
<path d="M121.604 65.6885H40.1406V86.1689H121.604V65.6885Z" fill="#E0E0E0"/>
<path d="M44.7662 69.0024H40.1406V86.1637H44.7662V69.0024Z" fill="#EBEBEB"/>
<path d="M67.1432 69.0024H62.5176V86.1637H67.1432V69.0024Z" fill="#EBEBEB"/>
<path d="M92.5447 68.5672L87.9863 69.2451L91.3652 86.157L95.9235 85.4791L92.5447 68.5672Z" fill="#EBEBEB"/>
<path d="M50.5006 71.2637H45.875V86.1638H50.5006V71.2637Z" fill="#EBEBEB"/>
<path d="M61.1354 71.2637H56.5098V86.1638H61.1354V71.2637Z" fill="#EBEBEB"/>
<path d="M87.9811 71.2637H83.3555V86.1638H87.9811V71.2637Z" fill="#EBEBEB"/>
<path d="M73.2205 70.7499L68.7051 71.6157L72.4519 86.161L76.9673 85.2952L73.2205 70.7499Z" fill="#EBEBEB"/>
<path d="M54.5042 68.1475H52.1914V86.1639H54.5042V68.1475Z" fill="#EBEBEB"/>
<path d="M82.0296 68.1475H79.7168V86.1639H82.0296V68.1475Z" fill="#EBEBEB"/>
<path d="M40.1403 109.886L121.604 109.886V89.4058H40.1403V109.886Z" fill="#E0E0E0"/>
<path d="M116.978 109.886H121.604V92.725H116.978V109.886Z" fill="#EBEBEB"/>
<path d="M94.601 109.886H99.2266V92.725H94.601V109.886Z" fill="#EBEBEB"/>
<path d="M65.8205 109.211L70.3789 109.889L73.7577 92.9768L69.1994 92.2989L65.8205 109.211Z" fill="#EBEBEB"/>
<path d="M111.24 109.886H115.865V94.9861H111.24V109.886Z" fill="#EBEBEB"/>
<path d="M100.611 109.886H105.236V94.9861H100.611V109.886Z" fill="#EBEBEB"/>
<path d="M73.7572 109.886H78.3828V94.9861H73.7572V109.886Z" fill="#EBEBEB"/>
<path d="M84.7834 109.017L89.2988 109.883L93.0457 95.3375L88.5302 94.4717L84.7834 109.017Z" fill="#EBEBEB"/>
<path d="M107.24 109.886H109.553V91.8698H107.24V109.886Z" fill="#EBEBEB"/>
<path d="M79.7165 109.886H82.0293V91.8698H79.7165V109.886Z" fill="#EBEBEB"/>
<path d="M44.7662 92.7246H40.1406V109.886H44.7662V92.7246Z" fill="#EBEBEB"/>
<path d="M50.5006 94.9863H45.875V109.886H50.5006V94.9863Z" fill="#EBEBEB"/>
<path d="M61.1354 94.9863H56.5098V109.886H61.1354V94.9863Z" fill="#EBEBEB"/>
<path d="M54.5042 91.8696H52.1914V109.886H54.5042V91.8696Z" fill="#EBEBEB"/>
<path d="M121.604 113.128H40.1406V133.608H121.604V113.128Z" fill="#E0E0E0"/>
<path d="M91.5201 116.443H86.8945V133.604H91.5201V116.443Z" fill="#EBEBEB"/>
<path d="M116.928 116.01L112.369 116.688L115.748 133.6L120.306 132.922L116.928 116.01Z" fill="#EBEBEB"/>
<path d="M74.8776 118.708H70.252V133.609H74.8776V118.708Z" fill="#EBEBEB"/>
<path d="M85.5182 118.708H80.8926V133.609H85.5182V118.708Z" fill="#EBEBEB"/>
<path d="M112.364 118.708H107.738V133.609H112.364V118.708Z" fill="#EBEBEB"/>
<path d="M97.6072 118.192L93.0918 119.058L96.8386 133.603L101.354 132.738L97.6072 118.192Z" fill="#EBEBEB"/>
<path d="M78.8812 115.592H76.5684V133.608H78.8812V115.592Z" fill="#EBEBEB"/>
<path d="M106.405 115.592H104.092V133.608H106.405V115.592Z" fill="#EBEBEB"/>
<path d="M63.6892 116.014L59.1309 116.692L62.5097 133.604L67.0681 132.926L63.6892 116.014Z" fill="#EBEBEB"/>
<path d="M59.1256 118.708H54.5V133.609H59.1256V118.708Z" fill="#EBEBEB"/>
<path d="M44.365 118.195L39.8496 119.061L43.5964 133.606L48.1119 132.741L44.365 118.195Z" fill="#EBEBEB"/>
<path d="M53.1663 115.592H50.8535V133.608H53.1663V115.592Z" fill="#EBEBEB"/>
<path d="M170.956 100.798H220.359C221.635 100.798 222.899 101.015 224.078 101.437C225.256 101.859 226.327 102.478 227.228 103.257C228.129 104.037 228.842 104.962 229.328 105.98C229.814 106.998 230.062 108.089 230.059 109.19V142.469H161.279V109.19C161.273 106.97 162.289 104.839 164.104 103.266C165.919 101.692 168.383 100.804 170.956 100.798Z" fill="#E6E6E6"/>
<path d="M146.653 125.468H155.49C156.249 125.465 157.002 125.592 157.705 125.842C158.408 126.091 159.047 126.457 159.585 126.92C160.123 127.383 160.549 127.933 160.84 128.539C161.131 129.144 161.281 129.793 161.28 130.449V157.988H140.885V130.449C140.884 129.795 141.033 129.147 141.322 128.543C141.612 127.939 142.037 127.39 142.572 126.927C143.108 126.464 143.744 126.097 144.444 125.847C145.144 125.597 145.895 125.468 146.653 125.468Z" fill="#E0E0E0"/>
<path d="M146.653 125.468H146.838C147.595 125.468 148.346 125.597 149.046 125.847C149.746 126.097 150.382 126.464 150.918 126.927C151.454 127.39 151.879 127.939 152.168 128.543C152.458 129.147 152.606 129.795 152.606 130.449V157.988H140.885V130.449C140.884 129.795 141.033 129.147 141.322 128.543C141.612 127.939 142.037 127.39 142.572 126.927C143.108 126.464 143.744 126.097 144.444 125.847C145.144 125.597 145.895 125.468 146.653 125.468Z" fill="#EBEBEB"/>
<path d="M222.864 145.32H155.07V157.964H222.864V145.32Z" fill="#E6E6E6"/>
<path d="M220.355 133.758H154.975C151.736 133.758 149.111 136.023 149.111 138.817V141.962C149.111 144.756 151.736 147.021 154.975 147.021H220.355C223.593 147.021 226.218 144.756 226.218 141.962V138.817C226.218 136.023 223.593 133.758 220.355 133.758Z" fill="#F5F5F5"/>
<path d="M220.242 133.758H212.139C208.9 133.758 206.275 136.023 206.275 138.817V141.962C206.275 144.756 208.9 147.021 212.139 147.021H220.242C223.48 147.021 226.105 144.756 226.105 141.962V138.817C226.105 136.023 223.48 133.758 220.242 133.758Z" fill="#E0E0E0"/>
<path d="M221.122 125.468H229.964C230.722 125.468 231.472 125.597 232.172 125.847C232.872 126.098 233.508 126.465 234.043 126.927C234.578 127.39 235.002 127.939 235.291 128.543C235.58 129.148 235.728 129.795 235.727 130.449V157.988H215.359V130.449C215.358 129.795 215.506 129.148 215.795 128.543C216.084 127.939 216.508 127.39 217.043 126.927C217.578 126.465 218.214 126.098 218.914 125.847C219.614 125.597 220.364 125.468 221.122 125.468Z" fill="#E0E0E0"/>
<path d="M221.122 125.468H221.312C222.07 125.468 222.82 125.597 223.52 125.847C224.22 126.098 224.856 126.465 225.391 126.927C225.926 127.39 226.35 127.939 226.639 128.543C226.928 129.148 227.076 129.795 227.075 130.449V157.988H215.359V130.449C215.358 129.795 215.506 129.148 215.795 128.543C216.084 127.939 216.508 127.39 217.043 126.927C217.578 126.465 218.214 126.098 218.914 125.847C219.614 125.597 220.364 125.468 221.122 125.468Z" fill="#F0F0F0"/>
<path d="M84.1441 50.5536C91.3336 49.5467 96.2157 43.7022 95.0487 37.4995C93.8817 31.2967 87.1074 27.0847 79.918 28.0915C72.7286 29.0983 67.8464 34.9429 69.0134 41.1456C70.1805 47.3483 76.9547 51.5604 84.1441 50.5536Z" fill="#E0E0E0"/>
<path d="M83.8284 48.8744C89.9433 48.0181 94.0957 43.0471 93.1031 37.7715C92.1105 32.4959 86.3488 28.9134 80.234 29.7697C74.1192 30.6261 69.9668 35.597 70.9593 40.8726C71.9519 46.1483 77.7136 49.7308 83.8284 48.8744Z" fill="#F0F0F0"/>
<path d="M81.4978 45.9662V39.2021L76.3066 41.7387" fill="#F0F0F0"/>
<path d="M81.4975 46.4492C81.349 46.4492 81.2066 46.3983 81.1015 46.3077C80.9965 46.2171 80.9375 46.0942 80.9375 45.9661V40.0282L76.5807 42.1589C76.4515 42.2215 76.2987 42.2373 76.1559 42.2029C76.0132 42.1685 75.8921 42.0866 75.8191 41.9753C75.7461 41.8643 75.7269 41.733 75.7657 41.6099C75.8046 41.4868 75.8982 41.3819 76.0263 41.3182L81.2231 38.7817C81.3083 38.7404 81.4044 38.7191 81.5021 38.7197C81.5998 38.7204 81.6955 38.7432 81.7799 38.7856C81.8642 38.8281 81.9342 38.8889 81.9829 38.962C82.0316 39.035 82.0573 39.1178 82.0575 39.202V45.9661C82.0575 46.0942 81.9985 46.2171 81.8935 46.3077C81.7885 46.3983 81.646 46.4492 81.4975 46.4492Z" fill="#E0E0E0"/>
<path d="M240.022 24.9688H155.602V89.5989H240.022V24.9688Z" fill="#E6E6E6"/>
<path d="M237.799 26.7422H157.713V87.8647H237.799V26.7422Z" fill="#F0F0F0"/>
<path d="M176.506 26.7422L157.713 87.7294V59.0742L167.636 26.7422H176.506Z" fill="white"/>
<path d="M183.165 26.7422L164.204 87.8647H161.18L180.141 26.7422H183.165Z" fill="white"/>
<path d="M237.798 65.3115V75.0759L233.961 87.8647H230.938L237.798 65.3115Z" fill="white"/>
<path d="M185.646 25.6455H184.297V89.2321H185.646V25.6455Z" fill="#E6E6E6"/>
<path d="M211.791 25.6455H210.441V89.2321H211.791V25.6455Z" fill="#E6E6E6"/>
<path d="M140 180C199.966 180 248.579 177.551 248.579 174.531C248.579 171.51 199.966 169.062 140 169.062C80.0341 169.062 31.4219 171.51 31.4219 174.531C31.4219 177.551 80.0341 180 140 180Z" fill="#F5F5F5"/>
<path d="M225.063 162.447C225.063 162.447 227.723 157.442 224.682 152.504C221.641 147.567 220.762 146.407 222.7 145.392C224.637 144.378 225.528 149.345 225.528 149.345C226.486 147.102 226.584 144.653 225.808 142.358C224.464 138.788 223.618 132.971 225.455 132.348C227.292 131.724 225.808 139.595 227.409 142.291C228.222 140.404 228.747 138.434 228.972 136.43C229.19 133.56 228.849 128.98 230.299 127.806C231.749 126.632 232.685 127.444 231.257 133.773C230.398 137.556 229.924 141.398 229.84 145.252C229.84 145.252 232.993 136.947 235.115 136.705C237.237 136.464 237.232 139.15 235.418 141.484C233.603 143.817 230.103 147.997 229.532 150.147C229.532 150.147 232.998 143.895 236.112 145.798C239.225 147.702 233.401 151.485 230.803 152.852C228.205 154.219 226.401 162.761 226.401 162.761L225.063 162.447Z" fill="#FB4774"/>
<path opacity="0.2" d="M225.063 162.447C225.063 162.447 227.723 157.442 224.682 152.504C221.641 147.567 220.762 146.407 222.7 145.392C224.637 144.378 225.528 149.345 225.528 149.345C226.486 147.102 226.584 144.653 225.808 142.358C224.464 138.788 223.618 132.971 225.455 132.348C227.292 131.724 225.808 139.595 227.409 142.291C228.222 140.404 228.747 138.434 228.972 136.43C229.19 133.56 228.849 128.98 230.299 127.806C231.749 126.632 232.685 127.444 231.257 133.773C230.398 137.556 229.924 141.398 229.84 145.252C229.84 145.252 232.993 136.947 235.115 136.705C237.237 136.464 237.232 139.15 235.418 141.484C233.603 143.817 230.103 147.997 229.532 150.147C229.532 150.147 232.998 143.895 236.112 145.798C239.225 147.702 233.401 151.485 230.803 152.852C228.205 154.219 226.401 162.761 226.401 162.761L225.063 162.447Z" fill="black"/>
<path d="M227.163 164.501C227.163 164.501 224.57 159.462 227.678 154.563C230.786 149.664 231.682 148.514 229.761 147.48C227.84 146.446 226.877 151.393 226.877 151.393C225.949 149.142 225.884 146.693 226.692 144.407C228.087 140.851 229.016 135.044 227.185 134.396C225.354 133.749 226.732 141.643 225.096 144.315C224.31 142.419 223.811 140.442 223.612 138.435C223.433 135.565 223.842 130.99 222.403 129.797C220.964 128.603 220.023 129.405 221.367 135.754C222.172 139.545 222.591 143.389 222.621 147.243C222.621 147.243 219.58 138.899 217.469 138.633C215.358 138.368 215.319 141.049 217.1 143.407C218.88 145.765 222.319 149.987 222.879 152.142C222.879 152.142 219.519 145.861 216.36 147.726C213.202 149.591 218.992 153.447 221.568 154.848C224.144 156.249 225.836 164.815 225.836 164.815L227.163 164.501Z" fill="#FB4774"/>
<path d="M215.213 160.906H236.61L234.88 174.12H216.943L215.213 160.906Z" fill="#263238"/>
<path d="M135.856 171.999V173.734C135.856 173.785 135.844 173.836 135.821 173.883C135.799 173.931 135.765 173.974 135.723 174.01C135.681 174.047 135.631 174.076 135.576 174.095C135.521 174.115 135.462 174.125 135.402 174.125H78.6072C78.1228 174.125 77.6458 174.023 77.2179 173.827C76.79 173.631 76.4244 173.347 76.153 173.001C75.8817 172.655 75.7128 172.257 75.6613 171.841C75.6098 171.425 75.6772 171.005 75.8576 170.617L93.856 132.159L122.942 132.328L121.951 137.319L115.534 169.617C115.486 169.862 115.5 170.113 115.576 170.353C115.652 170.592 115.787 170.815 115.972 171.004C116.158 171.194 116.389 171.347 116.65 171.452C116.91 171.557 117.195 171.612 117.482 171.613H135.402C135.462 171.612 135.521 171.622 135.576 171.641C135.631 171.66 135.681 171.688 135.723 171.724C135.765 171.76 135.799 171.803 135.821 171.85C135.844 171.897 135.856 171.948 135.856 171.999Z" fill="#263238"/>
<path opacity="0.5" d="M135.856 171.999V173.734C135.856 173.785 135.844 173.836 135.821 173.883C135.799 173.931 135.765 173.974 135.723 174.01C135.681 174.047 135.631 174.076 135.576 174.095C135.521 174.115 135.462 174.125 135.402 174.125H78.6072C78.1228 174.125 77.6458 174.023 77.2179 173.827C76.79 173.631 76.4244 173.347 76.153 173.001C75.8817 172.655 75.7128 172.257 75.6613 171.841C75.6098 171.425 75.6772 171.005 75.8576 170.617L87.0184 146.774L93.856 132.159L122.942 132.328L121.951 137.319L119.151 151.364L115.528 169.617C115.48 169.862 115.494 170.113 115.57 170.353C115.646 170.592 115.781 170.815 115.967 171.004C116.152 171.194 116.383 171.347 116.644 171.452C116.905 171.557 117.189 171.612 117.477 171.613H135.397C135.457 171.611 135.516 171.62 135.572 171.639C135.627 171.658 135.678 171.686 135.721 171.722C135.764 171.758 135.798 171.801 135.821 171.849C135.844 171.897 135.856 171.948 135.856 171.999Z" fill="white"/>
<path opacity="0.2" d="M117.482 171.608H80.5221C80.3091 171.607 80.0996 171.562 79.9119 171.475C79.7242 171.388 79.5642 171.263 79.4458 171.11C79.3274 170.958 79.2544 170.782 79.2331 170.599C79.2118 170.416 79.2429 170.232 79.3237 170.062L95.1045 137.314H121.945L115.528 169.613C115.48 169.858 115.494 170.109 115.57 170.349C115.646 170.589 115.782 170.812 115.968 171.002C116.154 171.192 116.386 171.344 116.648 171.449C116.909 171.554 117.194 171.608 117.482 171.608Z" fill="black"/>
<path opacity="0.1" d="M122.942 132.323L121.95 137.314L119.156 151.359L87.0176 146.774L93.8552 132.154L122.942 132.323Z" fill="black"/>
<path d="M179.496 60.6346H44.8444C44.3921 60.6346 43.9443 60.7115 43.5264 60.8608C43.1086 61.0101 42.7289 61.229 42.4091 61.5049C42.0893 61.7808 41.8356 62.1084 41.6625 62.4689C41.4895 62.8294 41.4004 63.2158 41.4004 63.606V142.257C41.4004 143.045 41.7632 143.801 42.4091 144.358C43.055 144.915 43.931 145.228 44.8444 145.228H179.496C180.41 145.228 181.287 144.915 181.934 144.358C182.58 143.801 182.945 143.045 182.946 142.257V63.606C182.945 62.8175 182.58 62.0617 181.934 61.5046C181.287 60.9475 180.41 60.6346 179.496 60.6346Z" fill="#263238"/>
<path opacity="0.6" d="M179.496 60.6346H44.8444C44.3921 60.6346 43.9443 60.7115 43.5264 60.8608C43.1086 61.0101 42.7289 61.229 42.4091 61.5049C42.0893 61.7808 41.8356 62.1084 41.6625 62.4689C41.4895 62.8294 41.4004 63.2158 41.4004 63.606V142.257C41.4004 143.045 41.7632 143.801 42.4091 144.358C43.055 144.915 43.931 145.228 44.8444 145.228H179.496C180.41 145.228 181.287 144.915 181.934 144.358C182.58 143.801 182.945 143.045 182.946 142.257V63.606C182.945 62.8175 182.58 62.0617 181.934 61.5046C181.287 60.9475 180.41 60.6346 179.496 60.6346Z" fill="white"/>
<path opacity="0.2" d="M47.7004 145.224H44.8444C43.932 145.224 43.0568 144.911 42.4111 144.355C41.7654 143.799 41.4019 143.044 41.4004 142.257V63.611C41.3997 63.2204 41.4882 62.8335 41.6609 62.4724C41.8337 62.1113 42.0873 61.7832 42.4071 61.5068C42.727 61.2304 43.1069 61.0111 43.5251 60.8614C43.9433 60.7118 44.3917 60.6348 44.8444 60.6348H47.7004C47.2462 60.6329 46.7961 60.7085 46.376 60.8573C45.9558 61.006 45.5739 61.225 45.2523 61.5016C44.9306 61.7783 44.6755 62.107 44.5017 62.469C44.3279 62.8311 44.2389 63.2191 44.2396 63.611V142.257C44.2396 142.648 44.3293 143.036 44.5035 143.397C44.6776 143.758 44.9329 144.086 45.2546 144.362C45.5762 144.637 45.9579 144.855 46.3777 145.003C46.7975 145.151 47.247 145.226 47.7004 145.224Z" fill="black"/>
<path d="M179.844 63.1904H47.3652V139.03H179.844V63.1904Z" fill="#FB4774"/>
<path opacity="0.4" d="M111.776 92.0585C118.128 92.0585 123.278 87.6155 123.278 82.1347C123.278 76.654 118.128 72.2109 111.776 72.2109C105.423 72.2109 100.273 76.654 100.273 82.1347C100.273 87.6155 105.423 92.0585 111.776 92.0585Z" fill="white"/>
<path d="M109.032 80.6273V79.7189C109.032 79.2858 109.232 78.8705 109.587 78.5642C109.941 78.258 110.423 78.0859 110.925 78.0859H112.605C112.855 78.0834 113.104 78.1237 113.336 78.2046C113.568 78.2856 113.78 78.4054 113.958 78.5573C114.136 78.7092 114.277 78.8901 114.374 79.0895C114.47 79.2889 114.52 79.5029 114.52 79.7189V80.6466H115.747V79.7189C115.745 79.0056 115.416 78.3219 114.831 77.8175C114.247 77.313 113.454 77.0291 112.627 77.0278H110.947C110.121 77.0291 109.328 77.313 108.743 77.8175C108.159 78.3219 107.83 79.0056 107.828 79.7189V80.6466L109.032 80.6273Z" fill="white"/>
<path d="M106.26 81.8492V86.7241C106.26 86.7952 106.276 86.8656 106.308 86.9312C106.339 86.9969 106.385 87.0565 106.443 87.1068C106.502 87.157 106.571 87.1969 106.647 87.2241C106.723 87.2513 106.805 87.2653 106.887 87.2653H116.665C116.747 87.2653 116.828 87.2513 116.905 87.2241C116.981 87.1969 117.05 87.157 117.108 87.1068C117.166 87.0565 117.213 86.9969 117.244 86.9312C117.276 86.8656 117.292 86.7952 117.292 86.7241V81.8492C117.292 81.7057 117.226 81.5681 117.108 81.4666C116.99 81.3651 116.831 81.3081 116.665 81.3081H106.887C106.805 81.3081 106.723 81.3221 106.647 81.3493C106.571 81.3765 106.502 81.4164 106.443 81.4666C106.385 81.5168 106.339 81.5765 106.308 81.6422C106.276 81.7078 106.26 81.7782 106.26 81.8492ZM112.129 84.608V85.5743H111.44V84.608C111.339 84.5596 111.254 84.4898 111.194 84.4053C111.133 84.3207 111.098 84.2242 111.093 84.1248C111.093 83.9647 111.166 83.8111 111.298 83.6978C111.429 83.5845 111.607 83.5209 111.793 83.5209C111.978 83.5209 112.156 83.5845 112.288 83.6978C112.419 83.8111 112.493 83.9647 112.493 84.1248C112.485 84.2256 112.448 84.3231 112.384 84.4078C112.321 84.4925 112.232 84.5614 112.129 84.608Z" fill="white"/>
<path d="M83.7141 100.276H72.8501C72.2037 100.276 71.6797 100.728 71.6797 101.286V110.659C71.6797 111.217 72.2037 111.669 72.8501 111.669H83.7141C84.3605 111.669 84.8845 111.217 84.8845 110.659V101.286C84.8845 100.728 84.3605 100.276 83.7141 100.276Z" fill="white"/>
<path d="M100.464 100.262H89.6001C88.9537 100.262 88.4297 100.714 88.4297 101.272V110.645C88.4297 111.203 88.9537 111.655 89.6001 111.655H100.464C101.11 111.655 101.634 111.203 101.634 110.645V101.272C101.634 100.714 101.11 100.262 100.464 100.262Z" fill="white"/>
<path d="M117.208 100.248H106.344C105.698 100.248 105.174 100.7 105.174 101.257V110.63C105.174 111.188 105.698 111.64 106.344 111.64H117.208C117.855 111.64 118.379 111.188 118.379 110.63V101.257C118.379 100.7 117.855 100.248 117.208 100.248Z" fill="white"/>
<path d="M133.95 100.228H123.086C122.44 100.228 121.916 100.68 121.916 101.238V110.611C121.916 111.168 122.44 111.621 123.086 111.621H133.95C134.597 111.621 135.121 111.168 135.121 110.611V101.238C135.121 100.68 134.597 100.228 133.95 100.228Z" fill="white"/>
<path d="M150.695 100.214H139.831C139.184 100.214 138.66 100.666 138.66 101.224V110.597C138.66 111.154 139.184 111.606 139.831 111.606H150.695C151.341 111.606 151.865 111.154 151.865 110.597V101.224C151.865 100.666 151.341 100.214 150.695 100.214Z" fill="white"/>
<path d="M142.357 106.133C142.357 104.128 143.601 102.987 145.269 102.987C146.938 102.987 148.176 104.128 148.176 106.133C148.176 108.138 146.933 109.278 145.269 109.278C143.606 109.278 142.357 108.138 142.357 106.133ZM147.157 106.133C147.157 104.558 146.378 103.77 145.269 103.77C144.161 103.77 143.377 104.558 143.377 106.133C143.377 107.708 144.149 108.495 145.269 108.495C146.389 108.495 147.157 107.703 147.157 106.133Z" fill="#263238"/>
<path d="M80.9371 106.055C80.9371 108.152 79.5595 109.277 77.5771 109.277C76.9584 109.296 76.3451 109.171 75.8019 108.915L76.1603 108.224C76.5763 108.432 77.0523 108.532 77.5323 108.514C78.9771 108.514 79.8955 107.731 79.8955 106.19V105.973C79.6565 106.242 79.3437 106.457 78.985 106.597C78.6263 106.737 78.233 106.798 77.8403 106.775C76.4235 106.775 75.4043 106.045 75.4043 104.915C75.4043 103.784 76.5243 102.982 77.9187 102.982C79.8563 102.987 80.9371 104.093 80.9371 106.055ZM79.6827 104.886C79.6827 104.253 79.1227 103.697 78.0027 103.697C77.8067 103.677 77.6078 103.692 77.4192 103.743C77.2307 103.793 77.0566 103.878 76.9085 103.99C76.7605 104.103 76.6417 104.241 76.56 104.397C76.4784 104.552 76.4356 104.72 76.4347 104.89C76.4347 105.615 77.0563 106.079 78.0587 106.079C79.0611 106.079 79.6827 105.562 79.6827 104.886Z" fill="#263238"/>
<path d="M92.1191 106.133C92.1191 104.128 93.3623 102.987 95.0311 102.987C96.6999 102.987 97.9375 104.128 97.9375 106.133C97.9375 108.138 96.6943 109.278 95.0311 109.278C93.3679 109.278 92.1191 108.138 92.1191 106.133ZM96.9183 106.133C96.9183 104.558 96.1455 103.77 95.0311 103.77C93.9167 103.77 93.1383 104.558 93.1383 106.133C93.1383 107.708 93.9111 108.495 95.0311 108.495C96.1511 108.495 96.9183 107.708 96.9183 106.133Z" fill="#263238"/>
<path d="M114.351 108.442V109.191H109.227V108.611L112.128 106.195C112.884 105.562 113.024 105.176 113.024 104.789C113.024 104.156 112.509 103.77 111.507 103.77C111.164 103.753 110.822 103.805 110.507 103.92C110.191 104.036 109.911 104.213 109.687 104.436L108.992 103.92C109.32 103.607 109.724 103.361 110.175 103.2C110.627 103.038 111.114 102.966 111.602 102.987C113.086 102.987 114.043 103.644 114.043 104.697C114.043 105.296 113.842 105.833 112.873 106.63L110.695 108.437L114.351 108.442Z" fill="#263238"/>
<path d="M129.359 103.055V109.191H128.351V103.823H126.738V103.055H129.359Z" fill="#263238"/>
<g opacity="0.6">
<path d="M99.2479 97.4937V97.7111H97.3047V95.3389H99.1863V95.5563H97.5959V96.4018H99.0127V96.6289H97.5959V97.5082L99.2479 97.4937Z" fill="white"/>
<path d="M101.768 96.677V97.7109H101.488V96.7012C101.504 96.6261 101.5 96.5488 101.475 96.4754C101.451 96.4021 101.406 96.3348 101.345 96.2792C101.285 96.2236 101.21 96.1811 101.126 96.1554C101.043 96.1296 100.954 96.1213 100.866 96.1311C100.767 96.125 100.668 96.1376 100.576 96.168C100.484 96.1984 100.4 96.2459 100.331 96.3072C100.262 96.3684 100.21 96.4419 100.178 96.5225C100.145 96.603 100.133 96.6888 100.144 96.7736V97.7109H99.8691V95.9281H100.132V96.2567C100.216 96.1454 100.333 96.0554 100.471 95.9959C100.609 95.9365 100.763 95.9098 100.916 95.9185C101.033 95.9099 101.151 95.9238 101.26 95.9593C101.37 95.9947 101.469 96.0508 101.551 96.1234C101.632 96.196 101.694 96.2834 101.731 96.3791C101.769 96.4749 101.781 96.5766 101.768 96.677Z" fill="white"/>
<path d="M103.599 97.5955C103.476 97.6816 103.32 97.7262 103.162 97.7211C103.081 97.7269 103 97.7175 102.924 97.6937C102.848 97.6698 102.779 97.632 102.721 97.5829C102.664 97.5337 102.62 97.4744 102.591 97.4091C102.563 97.3437 102.551 97.2738 102.557 97.2042V96.1461H102.188V95.9432H102.557V95.5566H102.837V95.9432H103.464V96.1461H102.837V97.209C102.837 97.4216 102.96 97.5327 103.19 97.5327C103.301 97.5357 103.41 97.5049 103.498 97.4457L103.599 97.5955Z" fill="white"/>
<path d="M105.838 96.8946H104.114C104.127 97.0694 104.219 97.2326 104.372 97.3485C104.524 97.4644 104.723 97.5236 104.926 97.513C105.044 97.5163 105.162 97.4973 105.272 97.4572C105.381 97.4172 105.479 97.3571 105.558 97.2811L105.715 97.4357C105.562 97.5594 105.373 97.6437 105.167 97.6789C104.962 97.7142 104.749 97.699 104.553 97.6351C104.357 97.5712 104.185 97.4611 104.058 97.3174C103.931 97.1737 103.853 97.0021 103.834 96.8221C103.826 96.7046 103.846 96.5869 103.894 96.4765C103.941 96.3662 104.014 96.2654 104.109 96.1806C104.204 96.0958 104.318 96.0287 104.444 95.9836C104.57 95.9386 104.705 95.9164 104.842 95.9186C104.978 95.9163 105.113 95.9385 105.238 95.9837C105.364 96.0288 105.477 96.096 105.571 96.181C105.664 96.266 105.737 96.3669 105.783 96.4772C105.829 96.5876 105.848 96.7051 105.838 96.8221C105.838 96.8221 105.838 96.8656 105.838 96.8946ZM104.114 96.7158H105.575C105.559 96.5581 105.475 96.4113 105.34 96.3044C105.205 96.1975 105.028 96.1381 104.844 96.1381C104.661 96.1381 104.484 96.1975 104.349 96.3044C104.214 96.4113 104.13 96.5581 104.114 96.7158Z" fill="white"/>
<path d="M107.446 95.9187V96.1458H107.378C107.28 96.1413 107.182 96.1557 107.09 96.188C106.999 96.2203 106.917 96.2697 106.851 96.3326C106.785 96.3954 106.735 96.4702 106.706 96.5515C106.677 96.6328 106.67 96.7187 106.684 96.8029V97.7112H106.398V95.9284H106.667V96.2762C106.739 96.1553 106.852 96.0562 106.992 95.9923C107.131 95.9284 107.289 95.9027 107.446 95.9187Z" fill="white"/>
<path d="M110.739 95.9282L109.709 97.9236C109.535 98.2715 109.317 98.3826 109.02 98.3826C108.928 98.3855 108.837 98.3724 108.751 98.3442C108.666 98.3159 108.588 98.2732 108.521 98.2183L108.65 98.0396C108.698 98.0838 108.756 98.1188 108.821 98.1421C108.886 98.1655 108.955 98.1766 109.025 98.1748C109.21 98.1748 109.333 98.1024 109.451 97.8801L109.541 97.7062L108.639 95.9282H108.93L109.703 97.4405L110.481 95.9282H110.739Z" fill="white"/>
<path d="M110.879 96.8223C110.878 96.6425 110.939 96.4664 111.054 96.3164C111.169 96.1664 111.333 96.0492 111.526 95.9797C111.718 95.9102 111.93 95.8915 112.134 95.926C112.339 95.9605 112.527 96.0467 112.675 96.1735C112.823 96.3003 112.923 96.4622 112.964 96.6385C113.006 96.8148 112.985 96.9977 112.905 97.164C112.826 97.3302 112.691 97.4724 112.518 97.5724C112.345 97.6724 112.141 97.7258 111.932 97.7258C111.793 97.7305 111.654 97.7104 111.524 97.6667C111.394 97.6231 111.276 97.5568 111.178 97.472C111.079 97.3872 111.001 97.2858 110.95 97.174C110.899 97.0622 110.875 96.9425 110.879 96.8223ZM112.694 96.8223C112.687 96.6926 112.637 96.5674 112.548 96.4623C112.46 96.3573 112.337 96.277 112.196 96.2314C112.055 96.1859 111.902 96.1772 111.755 96.2063C111.609 96.2354 111.475 96.3011 111.371 96.3952C111.268 96.4893 111.198 96.6076 111.172 96.7355C111.146 96.8633 111.164 96.995 111.223 97.1142C111.283 97.2334 111.382 97.3347 111.508 97.4057C111.634 97.4766 111.782 97.514 111.932 97.5132C112.035 97.5128 112.136 97.4942 112.23 97.4587C112.324 97.4232 112.408 97.3715 112.478 97.3067C112.548 97.242 112.601 97.1656 112.636 97.0823C112.67 96.999 112.684 96.9105 112.677 96.8223H112.694Z" fill="white"/>
<path d="M115.387 95.9282V97.711H115.124V97.3825C115.047 97.4924 114.938 97.5823 114.807 97.6426C114.675 97.703 114.528 97.7317 114.379 97.7255C114.261 97.7356 114.142 97.7227 114.03 97.6877C113.918 97.6527 113.817 97.5965 113.733 97.5232C113.65 97.45 113.587 97.3616 113.549 97.2645C113.51 97.1673 113.497 97.064 113.511 96.9621V95.9282H113.786V96.938C113.769 97.013 113.773 97.0904 113.798 97.1637C113.823 97.2371 113.867 97.3043 113.928 97.36C113.989 97.4156 114.064 97.458 114.147 97.4838C114.23 97.5095 114.32 97.5179 114.407 97.5081C114.505 97.5129 114.602 97.4993 114.693 97.4682C114.783 97.437 114.865 97.3891 114.931 97.3279C114.998 97.2666 115.048 97.1934 115.079 97.1136C115.109 97.0337 115.119 96.949 115.107 96.8655V95.9282H115.387Z" fill="white"/>
<path d="M117.208 95.9187V96.1457H117.14C117.042 96.1413 116.944 96.1557 116.852 96.188C116.761 96.2203 116.679 96.2697 116.613 96.3325C116.547 96.3954 116.497 96.4702 116.468 96.5515C116.439 96.6328 116.432 96.7186 116.446 96.8028V97.7111H116.166V95.9283H116.435V96.2762C116.506 96.1561 116.619 96.0575 116.757 95.9937C116.895 95.9299 117.052 95.9037 117.208 95.9187Z" fill="white"/>
<path d="M118.579 96.5273C118.569 96.2791 118.645 96.034 118.798 95.8233C118.95 95.6127 119.172 95.4462 119.435 95.3451C119.698 95.2441 119.99 95.2131 120.274 95.2562C120.557 95.2993 120.819 95.4144 121.026 95.5869C121.233 95.7594 121.376 95.9813 121.436 96.2242C121.496 96.4671 121.47 96.7199 121.363 96.9502C121.255 97.1806 121.07 97.3779 120.831 97.5169C120.593 97.6558 120.312 97.7302 120.024 97.7303C119.836 97.7369 119.649 97.7105 119.474 97.6529C119.298 97.5954 119.138 97.5077 119.003 97.3953C118.868 97.2828 118.761 97.1479 118.688 96.9988C118.615 96.8496 118.578 96.6892 118.579 96.5273ZM121.172 96.5273C121.178 96.3281 121.116 96.1318 120.991 95.9637C120.867 95.7957 120.688 95.6637 120.475 95.5848C120.263 95.5059 120.029 95.4837 119.802 95.5212C119.575 95.5587 119.366 95.654 119.203 95.795C119.04 95.9359 118.929 96.1158 118.886 96.3116C118.842 96.5073 118.868 96.7098 118.959 96.8928C119.051 97.0758 119.204 97.2309 119.399 97.338C119.593 97.4451 119.821 97.4993 120.052 97.4936C120.349 97.4936 120.634 97.3918 120.844 97.2106C121.054 97.0294 121.172 96.7836 121.172 96.5273Z" fill="white"/>
<path d="M122.606 95.5563H121.643V95.3389H123.883V95.5563H122.914V97.7111H122.623L122.606 95.5563Z" fill="white"/>
<path d="M126.474 96.1461C126.474 96.6292 126.049 96.953 125.354 96.953H124.621V97.7018H124.318V95.3296H125.343C126.049 95.3393 126.474 95.663 126.474 96.1461ZM126.183 96.1461C126.183 95.7644 125.892 95.547 125.343 95.547H124.615V96.7307H125.343C125.892 96.7404 126.183 96.5278 126.183 96.1461Z" fill="white"/>
</g>
<g opacity="0.6">
<path d="M100.883 117.834L100.995 117.645C101.246 117.834 101.569 117.935 101.902 117.93C102.412 117.93 102.636 117.747 102.636 117.51C102.636 116.863 100.956 117.259 100.956 116.384C100.956 116.036 101.269 115.737 101.964 115.737C102.265 115.733 102.56 115.806 102.815 115.945L102.72 116.143C102.494 116.018 102.232 115.951 101.964 115.949C101.465 115.949 101.241 116.143 101.241 116.379C101.241 117.027 102.921 116.636 102.921 117.496C102.921 117.848 102.602 118.143 101.902 118.143C101.529 118.155 101.165 118.044 100.883 117.834Z" fill="white"/>
<path d="M105.278 117.307H103.553C103.566 117.482 103.658 117.645 103.811 117.761C103.963 117.877 104.162 117.936 104.365 117.926C104.483 117.929 104.602 117.91 104.711 117.87C104.82 117.83 104.918 117.77 104.998 117.694L105.154 117.848C105.056 117.946 104.933 118.023 104.796 118.074C104.658 118.125 104.509 118.148 104.359 118.143C104.217 118.151 104.075 118.132 103.941 118.09C103.808 118.047 103.686 117.981 103.584 117.896C103.482 117.81 103.401 117.707 103.348 117.593C103.294 117.48 103.269 117.358 103.273 117.235C103.266 117.117 103.287 117 103.335 116.89C103.382 116.78 103.456 116.68 103.55 116.595C103.645 116.51 103.758 116.443 103.884 116.398C104.009 116.352 104.145 116.33 104.281 116.331C104.417 116.328 104.553 116.35 104.679 116.395C104.805 116.44 104.919 116.507 105.013 116.592C105.108 116.677 105.181 116.778 105.227 116.889C105.273 116.999 105.293 117.117 105.283 117.235C105.283 117.235 105.278 117.283 105.278 117.307ZM103.553 117.129H105.014C104.998 116.971 104.914 116.824 104.779 116.717C104.644 116.61 104.467 116.551 104.284 116.551C104.1 116.551 103.923 116.61 103.788 116.717C103.653 116.824 103.569 116.971 103.553 117.129Z" fill="white"/>
<path d="M107.759 117.09V118.123H107.484V117.114C107.5 117.039 107.495 116.962 107.47 116.89C107.445 116.817 107.4 116.75 107.339 116.695C107.279 116.64 107.204 116.598 107.121 116.573C107.039 116.547 106.95 116.539 106.863 116.548C106.764 116.542 106.665 116.555 106.573 116.585C106.48 116.616 106.397 116.663 106.328 116.725C106.259 116.786 106.207 116.859 106.174 116.94C106.142 117.02 106.13 117.106 106.14 117.191V118.123H105.838V116.346H106.107V116.674C106.19 116.562 106.307 116.471 106.445 116.411C106.582 116.35 106.736 116.323 106.891 116.331C107.009 116.32 107.128 116.332 107.24 116.367C107.352 116.401 107.453 116.457 107.537 116.53C107.62 116.603 107.683 116.691 107.722 116.788C107.76 116.885 107.773 116.988 107.759 117.09Z" fill="white"/>
<path d="M110.407 115.611V118.124H110.138V117.771C110.057 117.889 109.94 117.985 109.8 118.051C109.66 118.116 109.502 118.148 109.343 118.143C109.078 118.126 108.83 118.024 108.649 117.856C108.468 117.687 108.367 117.467 108.367 117.237C108.367 117.008 108.468 116.787 108.649 116.619C108.83 116.451 109.078 116.348 109.343 116.331C109.498 116.326 109.652 116.356 109.789 116.418C109.927 116.48 110.043 116.572 110.127 116.684V115.611H110.407ZM110.133 117.235C110.126 117.105 110.076 116.98 109.988 116.875C109.899 116.77 109.777 116.69 109.637 116.644C109.496 116.599 109.343 116.589 109.196 116.618C109.05 116.647 108.916 116.712 108.812 116.806C108.708 116.899 108.639 117.017 108.612 117.145C108.585 117.272 108.602 117.404 108.661 117.523C108.72 117.642 108.818 117.744 108.943 117.816C109.068 117.887 109.215 117.925 109.366 117.926C109.47 117.927 109.573 117.91 109.669 117.875C109.765 117.841 109.852 117.79 109.924 117.725C109.996 117.66 110.052 117.583 110.088 117.498C110.124 117.414 110.139 117.324 110.133 117.235Z" fill="white"/>
<path d="M113.768 117.023V118.124H113.499V117.849C113.421 117.948 113.314 118.027 113.189 118.079C113.064 118.131 112.926 118.153 112.788 118.143C112.323 118.143 112.037 117.931 112.037 117.622C112.037 117.312 112.239 117.139 112.832 117.139H113.488V117.032C113.495 116.967 113.486 116.901 113.461 116.84C113.436 116.778 113.395 116.722 113.341 116.675C113.287 116.629 113.222 116.594 113.151 116.572C113.079 116.55 113.003 116.542 112.928 116.549C112.676 116.546 112.431 116.621 112.239 116.762L112.116 116.583C112.352 116.42 112.647 116.334 112.95 116.341C113.058 116.33 113.167 116.34 113.271 116.37C113.374 116.4 113.468 116.449 113.546 116.515C113.624 116.58 113.685 116.659 113.723 116.747C113.761 116.835 113.777 116.929 113.768 117.023ZM113.488 117.588V117.298H112.838C112.44 117.298 112.312 117.433 112.312 117.617C112.312 117.8 112.502 117.95 112.832 117.95C112.972 117.958 113.111 117.927 113.229 117.862C113.347 117.797 113.438 117.701 113.488 117.588Z" fill="white"/>
<path d="M116.439 116.346V117.887C116.461 118.008 116.45 118.132 116.406 118.248C116.362 118.365 116.287 118.471 116.186 118.558C116.086 118.644 115.963 118.709 115.828 118.747C115.693 118.785 115.549 118.795 115.409 118.776C115.061 118.788 114.719 118.692 114.446 118.505L114.586 118.322C114.815 118.482 115.103 118.567 115.398 118.563C115.924 118.563 116.159 118.361 116.159 117.921V117.694C116.071 117.805 115.951 117.895 115.811 117.955C115.67 118.015 115.515 118.043 115.359 118.037C115.221 118.046 115.083 118.03 114.953 117.991C114.822 117.951 114.703 117.889 114.602 117.808C114.501 117.727 114.42 117.629 114.365 117.52C114.31 117.411 114.281 117.293 114.281 117.174C114.281 117.055 114.31 116.938 114.365 116.829C114.42 116.719 114.501 116.621 114.602 116.54C114.703 116.459 114.822 116.397 114.953 116.358C115.083 116.319 115.221 116.303 115.359 116.312C115.518 116.305 115.676 116.334 115.818 116.396C115.961 116.458 116.082 116.55 116.171 116.665V116.326L116.439 116.346ZM116.171 117.191C116.176 117.057 116.135 116.924 116.052 116.809C115.97 116.695 115.849 116.604 115.706 116.549C115.564 116.495 115.405 116.478 115.251 116.501C115.098 116.524 114.955 116.587 114.843 116.68C114.73 116.774 114.653 116.894 114.62 117.026C114.588 117.158 114.601 117.295 114.66 117.42C114.718 117.545 114.819 117.652 114.948 117.728C115.078 117.803 115.23 117.843 115.387 117.844C115.489 117.849 115.591 117.836 115.687 117.805C115.783 117.775 115.871 117.727 115.945 117.666C116.018 117.605 116.076 117.531 116.115 117.449C116.154 117.367 116.173 117.28 116.171 117.191Z" fill="white"/>
<path d="M118.775 117.022V118.124H118.512V117.848C118.434 117.947 118.327 118.026 118.202 118.078C118.077 118.129 117.939 118.152 117.801 118.143C117.331 118.143 117.045 117.93 117.045 117.621C117.045 117.312 117.252 117.138 117.846 117.138H118.495V117.032C118.495 116.727 118.299 116.549 117.935 116.549C117.685 116.546 117.443 116.621 117.252 116.761L117.123 116.582C117.362 116.419 117.659 116.334 117.963 116.341C118.071 116.33 118.18 116.341 118.282 116.371C118.385 116.401 118.478 116.451 118.556 116.516C118.633 116.581 118.693 116.66 118.731 116.748C118.769 116.835 118.784 116.929 118.775 117.022ZM118.495 117.587V117.297H117.851C117.448 117.297 117.319 117.433 117.319 117.616C117.319 117.8 117.515 117.95 117.846 117.95C117.985 117.958 118.123 117.927 118.241 117.862C118.358 117.797 118.447 117.7 118.495 117.587Z" fill="white"/>
<path d="M119.469 115.781C119.477 115.739 119.502 115.701 119.539 115.674C119.577 115.646 119.624 115.631 119.673 115.631C119.722 115.631 119.77 115.646 119.807 115.674C119.845 115.701 119.87 115.739 119.878 115.781C119.87 115.823 119.845 115.861 119.807 115.888C119.77 115.915 119.722 115.93 119.673 115.93C119.624 115.93 119.577 115.915 119.539 115.888C119.502 115.861 119.477 115.823 119.469 115.781ZM119.53 116.346H119.81V118.124H119.53V116.346Z" fill="white"/>
<path d="M122.483 117.09V118.124H122.208V117.114C122.224 117.04 122.219 116.963 122.194 116.89C122.169 116.817 122.124 116.751 122.063 116.696C122.003 116.641 121.928 116.599 121.845 116.573C121.763 116.548 121.674 116.54 121.587 116.549C121.488 116.543 121.389 116.556 121.297 116.586C121.204 116.616 121.121 116.664 121.052 116.725C120.983 116.786 120.931 116.86 120.898 116.94C120.866 117.021 120.854 117.107 120.864 117.192V118.124H120.59V116.346H120.853V116.675C120.936 116.562 121.053 116.472 121.191 116.411C121.329 116.351 121.483 116.323 121.637 116.332C121.753 116.324 121.87 116.338 121.979 116.374C122.088 116.41 122.187 116.466 122.268 116.539C122.348 116.611 122.41 116.698 122.447 116.794C122.484 116.889 122.496 116.99 122.483 117.09Z" fill="white"/>
</g>
<path opacity="0.4" d="M127.376 130.203H96.1675C94.9343 130.201 93.7521 129.778 92.8806 129.025C92.0091 128.272 91.5195 127.252 91.5195 126.188C91.5195 125.124 92.0091 124.103 92.8806 123.35C93.7521 122.598 94.9343 122.174 96.1675 122.173H127.376C128.611 122.173 129.794 122.596 130.667 123.349C131.54 124.102 132.03 125.123 132.03 126.188C132.03 127.253 131.54 128.274 130.667 129.027C129.794 129.78 128.611 130.203 127.376 130.203Z" fill="white"/>
<path d="M99.6017 125.985C99.599 125.796 99.6412 125.61 99.7257 125.436C99.8101 125.263 99.935 125.106 100.093 124.976C100.25 124.846 100.437 124.746 100.642 124.681C100.846 124.615 101.064 124.587 101.282 124.598C101.504 124.591 101.726 124.625 101.932 124.699C102.137 124.772 102.322 124.883 102.474 125.023L102.183 125.265C102.071 125.16 101.934 125.078 101.781 125.023C101.628 124.968 101.464 124.941 101.298 124.946C101.1 124.947 100.904 124.991 100.73 125.074C100.556 125.157 100.408 125.275 100.3 125.419C100.192 125.563 100.126 125.728 100.11 125.899C100.094 126.07 100.127 126.242 100.206 126.399C100.285 126.556 100.409 126.694 100.565 126.8C100.721 126.907 100.905 126.978 101.101 127.007C101.297 127.037 101.498 127.025 101.687 126.971C101.876 126.917 102.046 126.824 102.183 126.7L102.474 126.941C102.322 127.082 102.136 127.193 101.929 127.266C101.722 127.339 101.499 127.374 101.276 127.366C101.059 127.377 100.842 127.349 100.638 127.284C100.434 127.219 100.248 127.119 100.091 126.989C99.9339 126.86 99.8094 126.704 99.7252 126.531C99.6411 126.358 99.599 126.172 99.6017 125.985Z" fill="white"/>
<path d="M102.777 125.985C102.762 125.696 102.847 125.409 103.021 125.162C103.196 124.915 103.453 124.719 103.758 124.599C104.063 124.478 104.403 124.44 104.734 124.488C105.065 124.536 105.372 124.668 105.615 124.868C105.857 125.068 106.025 125.326 106.097 125.609C106.168 125.891 106.14 126.186 106.015 126.455C105.891 126.724 105.676 126.954 105.398 127.117C105.12 127.279 104.793 127.366 104.457 127.367C104.24 127.377 104.023 127.348 103.819 127.283C103.616 127.218 103.429 127.118 103.272 126.988C103.115 126.859 102.99 126.703 102.905 126.531C102.819 126.358 102.776 126.172 102.777 125.985ZM105.661 125.985C105.665 125.776 105.596 125.571 105.463 125.395C105.331 125.22 105.141 125.083 104.918 125.001C104.695 124.919 104.449 124.897 104.211 124.936C103.973 124.975 103.754 125.075 103.581 125.222C103.409 125.369 103.292 125.557 103.244 125.762C103.196 125.967 103.22 126.18 103.313 126.373C103.405 126.567 103.563 126.732 103.765 126.847C103.966 126.963 104.204 127.025 104.446 127.024C104.606 127.028 104.766 127.005 104.915 126.954C105.064 126.904 105.199 126.828 105.313 126.73C105.427 126.633 105.517 126.517 105.576 126.389C105.636 126.26 105.665 126.123 105.661 125.985Z" fill="white"/>
<path d="M109.49 124.651V127.357H109.121L107.239 125.337V127.357H106.791V124.651H107.161L109.042 126.666V124.651H109.49Z" fill="white"/>
<path d="M111.054 124.965H109.979V124.651H112.56V124.985H111.496V127.357H111.054V124.965Z" fill="white"/>
<path d="M113.057 124.651H113.505V127.357H113.057V124.651Z" fill="white"/>
<path d="M117.146 124.651V127.357H116.777L114.895 125.337V127.357H114.447V124.651H114.8L116.682 126.666V124.651H117.146Z" fill="white"/>
<path d="M118.059 126.168V124.651H118.507V126.173C118.507 126.772 118.826 127.043 119.391 127.043C119.957 127.043 120.276 126.772 120.276 126.173V124.651H120.713V126.188C120.713 126.491 120.573 126.783 120.324 126.997C120.075 127.212 119.738 127.333 119.386 127.333C119.034 127.333 118.696 127.212 118.447 126.997C118.198 126.783 118.059 126.491 118.059 126.188V126.168Z" fill="white"/>
<path d="M123.904 126.999V127.338H121.631V124.651H123.871V124.985H122.079V125.816H123.647V126.144H122.079V127.019L123.904 126.999Z" fill="white"/>
<path opacity="0.1" d="M166.035 63.5435C147.717 79.3761 100.672 114.617 47.3652 112.008V63.5435H166.035Z" fill="white"/>
<path opacity="0.1" d="M179.837 92.6427V139.387H100.082C103.14 129.946 109.255 117.017 121.116 107.78C142.452 91.1595 167.215 91.2078 179.837 92.6427Z" fill="white"/>
<path d="M196.689 56.0884L198.549 63.1713L200.408 56.0884H196.689Z" fill="#FB4774"/>
<path opacity="0.7" d="M196.689 56.0884L198.549 63.1713L200.408 56.0884H196.689Z" fill="white"/>
<path d="M219.358 36.0327H177.744C175.087 36.0327 172.934 37.8908 172.934 40.1829V53.508C172.934 55.8001 175.087 57.6582 177.744 57.6582H219.358C222.014 57.6582 224.168 55.8001 224.168 53.508V40.1829C224.168 37.8908 222.014 36.0327 219.358 36.0327Z" fill="#FB4774"/>
<path opacity="0.7" d="M219.358 36.0327H177.744C175.087 36.0327 172.934 37.8908 172.934 40.1829V53.508C172.934 55.8001 175.087 57.6582 177.744 57.6582H219.358C222.014 57.6582 224.168 55.8001 224.168 53.508V40.1829C224.168 37.8908 222.014 36.0327 219.358 36.0327Z" fill="white"/>
<g opacity="0.5">
<path d="M183.164 43.966V44.8985H182.722V43.966L181.479 42.2074H181.96L182.963 43.6568L183.971 42.2074H184.413L183.164 43.966Z" fill="#263238"/>
<path d="M184.313 43.8786C184.309 43.6666 184.377 43.4583 184.511 43.2802C184.644 43.1021 184.836 42.9622 185.061 42.8784C185.287 42.7946 185.536 42.7707 185.778 42.8097C186.02 42.8487 186.242 42.9489 186.417 43.0974C186.593 43.2459 186.713 43.4361 186.763 43.6437C186.812 43.8514 186.789 44.067 186.696 44.2633C186.603 44.4595 186.444 44.6274 186.24 44.7456C186.036 44.8638 185.796 44.927 185.551 44.927C185.388 44.9337 185.225 44.9114 185.073 44.8613C184.921 44.8112 184.782 44.7346 184.666 44.6361C184.55 44.5377 184.459 44.4196 184.398 44.2892C184.337 44.1588 184.308 44.019 184.313 43.8786ZM186.346 43.8786C186.355 43.7833 186.341 43.6874 186.305 43.597C186.27 43.5066 186.212 43.4235 186.137 43.3532C186.062 43.2828 185.971 43.2266 185.87 43.1882C185.768 43.1498 185.659 43.13 185.548 43.13C185.437 43.13 185.327 43.1498 185.226 43.1882C185.124 43.2266 185.033 43.2828 184.958 43.3532C184.883 43.4235 184.826 43.5066 184.79 43.597C184.754 43.6874 184.741 43.7833 184.75 43.8786C184.741 43.9738 184.754 44.0697 184.79 44.1602C184.826 44.2506 184.883 44.3336 184.958 44.404C185.033 44.4743 185.124 44.5305 185.226 44.5689C185.327 44.6074 185.437 44.6272 185.548 44.6272C185.659 44.6272 185.768 44.6074 185.87 44.5689C185.971 44.5305 186.062 44.4743 186.137 44.404C186.212 44.3336 186.27 44.2506 186.305 44.1602C186.341 44.0697 186.355 43.9738 186.346 43.8786Z" fill="#263238"/>
<path d="M189.588 42.8545V44.903H189.185V44.5938C189.092 44.7015 188.97 44.7881 188.829 44.8461C188.689 44.9042 188.534 44.932 188.378 44.9272C188.239 44.9395 188.099 44.9248 187.967 44.8841C187.836 44.8434 187.716 44.7777 187.618 44.692C187.52 44.6062 187.445 44.5025 187.399 44.3886C187.353 44.2746 187.338 44.1532 187.354 44.0334V42.8545H187.785V43.9947C187.785 44.3957 188.02 44.5938 188.429 44.5938C188.531 44.5996 188.634 44.5857 188.73 44.5531C188.825 44.5205 188.911 44.47 188.981 44.4053C189.051 44.3406 189.104 44.2633 189.135 44.1789C189.167 44.0946 189.176 44.0052 189.162 43.9174V42.8545H189.588Z" fill="#263238"/>
<path d="M191.686 42.8353V43.1976H191.586C191.481 43.1918 191.376 43.206 191.279 43.2394C191.182 43.2728 191.094 43.3244 191.023 43.3905C190.952 43.4567 190.898 43.5357 190.867 43.6218C190.835 43.7079 190.826 43.7991 190.841 43.8885V44.908H190.398V42.8546H190.813V43.2025C190.903 43.0757 191.033 42.9737 191.187 42.9086C191.342 42.8436 191.515 42.8181 191.686 42.8353Z" fill="#263238"/>
<path d="M193.261 43.5503C193.247 43.2613 193.333 42.9752 193.508 42.7287C193.684 42.4822 193.941 42.2867 194.246 42.1673C194.552 42.0479 194.892 42.0101 195.222 42.0587C195.553 42.1073 195.859 42.2402 196.101 42.4402C196.343 42.6402 196.511 42.8981 196.582 43.1808C196.653 43.4636 196.624 43.7582 196.499 44.0267C196.374 44.2952 196.159 44.5254 195.882 44.6876C195.604 44.8498 195.277 44.9367 194.941 44.9369C194.724 44.9476 194.506 44.9194 194.301 44.8543C194.097 44.7892 193.91 44.6885 193.752 44.5585C193.595 44.4285 193.47 44.2719 193.385 44.0984C193.301 43.925 193.259 43.7384 193.261 43.5503ZM196.145 43.5503C196.149 43.3412 196.08 43.136 195.947 42.9608C195.815 42.7856 195.625 42.6483 195.402 42.5665C195.179 42.4847 194.933 42.4621 194.695 42.5014C194.457 42.5408 194.238 42.6405 194.065 42.7876C193.893 42.9348 193.776 43.1229 193.728 43.3279C193.68 43.533 193.704 43.7456 193.797 43.9388C193.89 44.1321 194.047 44.2971 194.249 44.4129C194.451 44.5287 194.688 44.59 194.93 44.5891C195.09 44.5937 195.25 44.5701 195.399 44.5197C195.548 44.4693 195.684 44.3931 195.797 44.2958C195.911 44.1985 196.001 44.0822 196.061 43.9541C196.12 43.8259 196.149 43.6885 196.145 43.5503Z" fill="#263238"/>
<path d="M197.858 42.5165H196.783V42.1831H199.359V42.5165H198.284V44.8839H197.842L197.858 42.5165Z" fill="#263238"/>
<path d="M202.394 43.1448C202.394 43.7294 201.902 44.0869 201.084 44.0869H200.311V44.9034H199.863V42.2026H201.084C201.902 42.2026 202.394 42.5553 202.394 43.1448ZM201.946 43.1448C201.946 42.7583 201.644 42.536 201.073 42.536H200.311V43.7487H201.073C201.644 43.7487 201.946 43.5313 201.946 43.1448Z" fill="#263238"/>
<path d="M204.047 43.5501C204.062 43.2705 204.171 43.0007 204.359 42.7732C204.548 42.5457 204.81 42.3702 205.112 42.268C205.414 42.1658 205.744 42.1413 206.061 42.1973C206.379 42.2534 206.672 42.3876 206.903 42.5838L206.612 42.8302C206.499 42.7251 206.362 42.6418 206.21 42.586C206.057 42.5302 205.893 42.5031 205.727 42.5065C205.408 42.5065 205.101 42.616 204.876 42.8108C204.65 43.0056 204.523 43.2698 204.523 43.5453C204.523 43.8208 204.65 44.085 204.876 44.2798C205.101 44.4746 205.408 44.584 205.727 44.584C205.893 44.5875 206.057 44.5604 206.21 44.5046C206.362 44.4488 206.499 44.3655 206.612 44.2603L206.903 44.5067C206.672 44.703 206.379 44.8372 206.061 44.8933C205.744 44.9493 205.414 44.9247 205.112 44.8226C204.81 44.7204 204.548 44.5449 204.359 44.3174C204.171 44.0899 204.062 43.82 204.047 43.5405V43.5501Z" fill="#263238"/>
<path d="M207.161 43.8786C207.156 43.6666 207.225 43.4583 207.358 43.2802C207.492 43.1021 207.683 42.9622 207.909 42.8784C208.135 42.7946 208.384 42.7707 208.626 42.8097C208.867 42.8487 209.09 42.9489 209.265 43.0974C209.44 43.2459 209.561 43.4361 209.61 43.6437C209.66 43.8514 209.637 44.067 209.544 44.2633C209.451 44.4595 209.292 44.6274 209.088 44.7456C208.884 44.8638 208.644 44.927 208.398 44.927C208.236 44.9337 208.073 44.9114 207.921 44.8613C207.769 44.8112 207.63 44.7346 207.514 44.6361C207.398 44.5377 207.306 44.4196 207.246 44.2892C207.185 44.1588 207.156 44.019 207.161 43.8786ZM209.193 43.8786C209.203 43.7833 209.189 43.6874 209.153 43.597C209.117 43.5066 209.06 43.4235 208.985 43.3532C208.91 43.2828 208.819 43.2266 208.717 43.1882C208.616 43.1498 208.506 43.13 208.395 43.13C208.285 43.13 208.175 43.1498 208.074 43.1882C207.972 43.2266 207.881 43.2828 207.806 43.3532C207.731 43.4235 207.674 43.5066 207.638 43.597C207.602 43.6874 207.588 43.7833 207.597 43.8786C207.588 43.9738 207.602 44.0697 207.638 44.1602C207.674 44.2506 207.731 44.3336 207.806 44.404C207.881 44.4743 207.972 44.5305 208.074 44.5689C208.175 44.6074 208.285 44.6272 208.395 44.6272C208.506 44.6272 208.616 44.6074 208.717 44.5689C208.819 44.5305 208.91 44.4743 208.985 44.404C209.06 44.3336 209.117 44.2506 209.153 44.1602C209.189 44.0697 209.203 43.9738 209.193 43.8786Z" fill="#263238"/>
<path d="M212.463 42.0332V44.8982H212.055V44.5745C211.957 44.6872 211.829 44.7778 211.681 44.8384C211.534 44.899 211.372 44.9278 211.209 44.9224C210.902 44.9044 210.614 44.7863 210.403 44.5922C210.193 44.398 210.076 44.1421 210.076 43.8764C210.076 43.6107 210.193 43.3548 210.403 43.1606C210.614 42.9665 210.902 42.8484 211.209 42.8304C211.367 42.8262 211.524 42.8537 211.668 42.9107C211.812 42.9677 211.938 43.0527 212.038 43.1589V42.0332H212.463ZM212.038 43.874C212.03 43.7388 211.976 43.6085 211.884 43.4993C211.791 43.3901 211.663 43.3069 211.516 43.2599C211.369 43.2129 211.209 43.2042 211.056 43.235C210.903 43.2657 210.764 43.3345 210.656 43.4328C210.548 43.5311 210.476 43.6546 210.449 43.788C210.422 43.9213 210.441 44.0586 210.503 44.1828C210.566 44.307 210.669 44.4126 210.8 44.4865C210.932 44.5605 211.086 44.5995 211.243 44.5987C211.351 44.601 211.459 44.5836 211.559 44.5478C211.659 44.512 211.75 44.4584 211.825 44.3906C211.9 44.3228 211.957 44.2423 211.994 44.1541C212.031 44.066 212.046 43.9722 212.038 43.8788V43.874Z" fill="#263238"/>
<path d="M215.415 44.0049H213.495C213.521 44.1804 213.625 44.3405 213.784 44.452C213.944 44.5634 214.147 44.6179 214.351 44.604C214.479 44.6079 214.606 44.5879 214.724 44.5454C214.842 44.5029 214.948 44.4388 215.035 44.3576L215.275 44.5943C215.1 44.7477 214.877 44.854 214.633 44.9004C214.389 44.9468 214.135 44.9312 213.901 44.8556C213.667 44.78 213.463 44.6475 213.315 44.4743C213.166 44.301 213.079 44.0944 213.063 43.8793C213.057 43.742 213.084 43.6051 213.141 43.4771C213.199 43.349 213.286 43.2325 213.398 43.1347C213.51 43.0369 213.644 42.9599 213.791 42.9085C213.939 42.857 214.097 42.8323 214.256 42.8357C214.417 42.8288 214.577 42.8518 214.727 42.9032C214.876 42.9547 215.011 43.0332 215.122 43.1336C215.233 43.234 215.318 43.3539 215.37 43.4851C215.423 43.6162 215.442 43.7556 215.427 43.8938C215.425 43.9309 215.422 43.968 215.415 44.0049ZM213.495 43.7391H215.04C215.024 43.5752 214.937 43.4226 214.796 43.3113C214.656 43.2001 214.472 43.1384 214.281 43.1384C214.091 43.1384 213.907 43.2001 213.766 43.3113C213.626 43.4226 213.539 43.5752 213.523 43.7391H213.495Z" fill="#263238"/>
</g>
<g opacity="0.5">
<path d="M192.081 49.1354C192.081 50.6573 191.09 51.4689 189.639 51.4689C189.193 51.4826 188.75 51.3925 188.357 51.208L188.637 50.7249C188.94 50.8736 189.285 50.9457 189.634 50.9326C190.681 50.9326 191.347 50.3674 191.347 49.2513V49.0967C191.174 49.2926 190.948 49.4485 190.688 49.5505C190.428 49.6525 190.143 49.6975 189.858 49.6813C189.637 49.7022 189.414 49.6831 189.202 49.6251C188.991 49.5671 188.796 49.4715 188.63 49.3445C188.463 49.2176 188.33 49.062 188.238 48.8879C188.145 48.7137 188.096 48.5248 188.094 48.3333C188.099 48.1357 188.151 47.941 188.247 47.7614C188.343 47.5817 188.48 47.4209 188.651 47.2887C188.821 47.1566 189.021 47.0559 189.238 46.993C189.455 46.93 189.685 46.906 189.914 46.9226C191.297 46.9129 192.081 47.7149 192.081 49.1354ZM191.168 48.314C191.168 47.855 190.743 47.454 189.936 47.454C189.795 47.4412 189.653 47.454 189.518 47.4915C189.383 47.5291 189.259 47.5906 189.154 47.672C189.048 47.7535 188.964 47.8532 188.906 47.9646C188.847 48.076 188.817 48.1967 188.816 48.3188C188.816 48.8406 189.264 49.1788 189.987 49.1788C190.13 49.1914 190.276 49.1788 190.414 49.1418C190.552 49.1048 190.68 49.0441 190.791 48.9633C190.901 48.8826 190.991 48.7834 191.056 48.6719C191.121 48.5603 191.159 48.4386 191.168 48.314Z" fill="#263238"/>
<path d="M192.785 49.1935C192.785 47.7441 193.687 46.9131 194.896 46.9131C196.106 46.9131 196.996 47.7441 196.996 49.1935C196.996 50.643 196.095 51.4691 194.896 51.4691C193.698 51.4691 192.785 50.643 192.785 49.1935ZM196.257 49.1935C196.257 48.0533 195.697 47.4832 194.896 47.4832C194.096 47.4832 193.524 48.0533 193.524 49.1935C193.524 50.3337 194.084 50.9039 194.896 50.9039C195.708 50.9039 196.257 50.3337 196.257 49.1935Z" fill="#263238"/>
<path d="M201.315 50.8652V51.4208H197.603V50.986L199.708 49.237C200.268 48.778 200.352 48.4978 200.352 48.2176C200.352 47.7634 199.977 47.4832 199.232 47.4832C198.984 47.4706 198.737 47.5077 198.508 47.5915C198.28 47.6754 198.077 47.8036 197.916 47.9664L197.412 47.5895C197.649 47.3632 197.941 47.1851 198.268 47.0681C198.594 46.9512 198.946 46.8982 199.299 46.9131C200.375 46.9131 201.069 47.3962 201.069 48.1548C201.061 48.4284 200.98 48.6968 200.834 48.9395C200.687 49.1823 200.478 49.3931 200.223 49.5559L198.644 50.8652H201.315Z" fill="#263238"/>
<path d="M203.522 46.9663V51.4209H202.789V47.5219H201.602V46.9663H203.522Z" fill="#263238"/>
<path d="M204.646 49.1935C204.646 47.7441 205.548 46.9131 206.758 46.9131C207.967 46.9131 208.858 47.7441 208.858 49.1935C208.858 50.643 207.962 51.4691 206.758 51.4691C205.554 51.4691 204.646 50.643 204.646 49.1935ZM208.124 49.1935C208.124 48.0533 207.564 47.4832 206.758 47.4832C205.951 47.4832 205.386 48.0533 205.386 49.1935C205.386 50.3337 205.946 50.9039 206.758 50.9039C207.57 50.9039 208.124 50.3337 208.124 49.1935Z" fill="#263238"/>
</g>
<path d="M193.945 76.8634C197.288 78.8592 201.027 80.3085 204.977 81.1392H205.016C204.721 81.1319 204.43 81.2027 204.182 81.3421C203.938 81.4734 203.743 81.6631 203.622 81.8881C203.581 81.957 203.558 82.0329 203.555 82.1103C203.644 81.0957 203.135 79.9555 202.776 78.8588C202.132 77.1243 201.376 75.3463 200.62 73.6022L202.782 72.6021C204.568 74.9646 210.532 82.4437 206.461 84.6082C205.763 84.9594 204.938 85.0731 204.148 84.927C199.712 84.3601 195.482 82.9365 191.772 80.7623C191.515 80.6077 191.291 80.4725 190.988 80.2792L193.956 76.8537L193.945 76.8634Z" fill="#DC897C"/>
<path d="M193.318 76.3368C195.278 76.5407 197.14 77.1929 198.711 78.2259L196.471 84.2072C196.471 84.2072 185.584 75.5493 193.318 76.3368Z" fill="#FB4774"/>
<path opacity="0.6" d="M193.297 81.3662C194.293 82.3509 195.347 83.2911 196.455 84.183L197.379 81.7238L198.712 78.2016C197.143 77.1695 195.283 76.5173 193.324 76.3126C188.564 75.8536 190.838 78.9264 193.297 81.3662Z" fill="white"/>
<path opacity="0.2" d="M193.297 81.3665C194.293 82.3511 195.347 83.2913 196.455 84.1832L197.379 81.724C196.217 80.9429 194.786 80.5179 193.313 80.5161C193.28 80.7986 193.274 81.0831 193.297 81.3665Z" fill="black"/>
<path d="M169.12 67.4902C169.12 67.4902 163.912 82.429 174.883 84.4341C185.853 86.4391 187.04 79.564 187.04 79.564C187.04 79.564 178.024 67.7946 169.12 67.4902Z" fill="#263238"/>
<path d="M166.55 72.4373C166.53 72.4423 166.509 72.4423 166.489 72.4373C166.473 72.4307 166.459 72.4213 166.447 72.4098C166.436 72.3983 166.427 72.3849 166.422 72.3704C166.417 72.356 166.415 72.3407 166.417 72.3256C166.419 72.3105 166.424 72.2959 166.433 72.2827C166.596 72.0249 166.827 71.8035 167.107 71.6358C167.387 71.4681 167.708 71.3588 168.045 71.3164C168.08 71.3174 168.114 71.3291 168.139 71.3495C168.165 71.3699 168.181 71.3976 168.185 71.4275C168.187 71.4428 168.185 71.4581 168.18 71.4727C168.174 71.4873 168.166 71.5008 168.154 71.5125C168.143 71.5241 168.129 71.5337 168.113 71.5407C168.097 71.5477 168.08 71.5519 168.062 71.5531C167.77 71.5943 167.493 71.6922 167.251 71.8395C167.01 71.9869 166.81 72.1797 166.668 72.4035C166.653 72.4176 166.635 72.4281 166.614 72.4341C166.594 72.44 166.572 72.4411 166.55 72.4373Z" fill="#263238"/>
<path d="M168.118 74.293C168.047 74.8753 167.895 75.448 167.664 75.9985C167.838 76.0878 168.036 76.135 168.238 76.135C168.44 76.135 168.639 76.0878 168.812 75.9985L168.118 74.293Z" fill="#DE5753"/>
<path d="M167.06 73.641C167.178 73.9067 167.441 74.0662 167.62 73.9985C167.799 73.9309 167.9 73.6652 167.782 73.3994C167.665 73.1337 167.401 72.9743 167.222 73.0419C167.043 73.1095 166.948 73.3753 167.06 73.641Z" fill="#263238"/>
<path d="M167.312 73.0273H166.545C166.545 73.0273 167.094 73.3945 167.312 73.0273Z" fill="#263238"/>
<path d="M178.21 76.1483C178.19 76.1916 178.164 76.2323 178.131 76.2691C178.081 76.3512 178.025 76.4285 177.969 76.5107C177.641 77.0198 177.204 77.4706 176.681 77.8393C175.001 78.994 173.539 79.3419 172.268 79.0085L172.083 78.9554C170.196 78.2935 168.723 76.3464 167.553 73.7712C167.033 72.7635 166.706 71.69 166.584 70.5921C166.584 70.5921 166.584 70.5535 166.584 70.5438C166.584 70.5342 166.584 70.4569 166.584 70.4182C166.54 69.789 166.679 69.1604 166.988 68.5892C167.297 68.0181 167.767 67.5225 168.354 67.1473C168.856 66.8074 169.4 66.5173 169.978 66.2825C175.572 63.9296 181.015 71.5923 178.21 76.1483Z" fill="#E4897B"/>
<path opacity="0.2" d="M177.968 76.5109C177.64 77.02 177.203 77.4708 176.68 77.8395C175 78.9942 173.539 79.3421 172.268 79.0087C173.504 78.7502 174.617 78.168 175.454 77.3419C175.777 77.0531 176.17 76.8291 176.604 76.6855C177.039 76.5419 177.504 76.4823 177.968 76.5109Z" fill="black"/>
<path d="M166.555 70.5628C166.555 70.5628 168.117 74.109 172.681 74.0462C172.681 74.0462 176.243 76.9451 178.645 76.0223C181.921 74.771 182.593 69.6303 179.256 66.0405C174.921 61.383 165.469 64.7409 166.555 70.5628Z" fill="#263238"/>
<path d="M170.24 73.8439C169.949 73.3076 169.954 72.2108 170.979 71.9403C172.004 71.6697 173.779 73.5491 171.573 75.0179C171.259 75.2305 170.845 74.9551 170.24 73.8439Z" fill="#E4897B"/>
<path d="M171.468 64.1084C171.468 64.1084 167.234 64.8283 165.868 67.0072C164.266 69.5389 164.188 71.5005 168.444 72.805C168.444 72.805 173.825 68.4567 176.144 67.9735C177.495 67.6843 178.872 67.4936 180.26 67.4034C178.714 63.5431 173.176 62.5092 171.468 64.1084Z" fill="#263238"/>
<path d="M175.571 77.931C175.571 77.931 178.483 79.6704 179.239 82.5402L188.317 77.9697C188.317 77.9697 181.21 76.5734 179.99 74.2012C179.99 74.2012 175.241 74.7085 175.571 77.931Z" fill="#E4897B"/>
<path d="M184.588 96.7497C184.588 96.7497 172.828 86.7824 171.562 83.6516C171.562 83.6516 176.507 77.0084 186.391 76.7282C196.275 76.448 203.001 92.6719 203.001 92.6719L184.588 96.7497Z" fill="#FB4774"/>
<path opacity="0.6" d="M202.999 92.6766L184.592 96.7543C184.592 96.7543 182.027 94.5754 179.16 91.9229C178.275 91.0967 177.351 90.2271 176.461 89.3671C174.126 87.0818 172.065 84.8497 171.566 83.637C171.566 83.637 176.506 76.9938 186.39 76.7135C196.274 76.4333 202.999 92.6766 202.999 92.6766Z" fill="white"/>
<path d="M173.601 72.346C173.601 72.346 175.32 77.274 181.357 78.9071C187.394 80.5401 185.876 85.8595 191.728 85.2314C194.842 84.898 197.507 79.4337 187.959 74.6022C182.393 71.7952 184.554 62.5671 172.738 63.432C172.727 63.4368 175.18 69.7611 173.601 72.346Z" fill="#263238"/>
<path d="M179.464 171.869L176.664 171.318C177.084 159.24 179.106 144.634 180.892 133.662C181.172 131.942 181.452 130.319 181.71 128.802C181.838 128.082 181.956 127.391 182.074 126.724C182.634 123.434 183.149 120.835 183.457 119.226C183.686 118.052 183.815 117.409 183.815 117.409L193.895 119.53L193.173 121.724L190.793 128.971L190.524 129.797L188.945 134.575L186.268 142.707C186.436 154.983 179.464 171.869 179.464 171.869Z" fill="#E4897B"/>
<path d="M203.431 169.849L200.564 169.723C198.38 156.736 197.461 140.493 197.064 129.202C197.008 127.453 196.957 125.82 196.918 124.332C196.918 124.26 196.918 124.187 196.918 124.115C196.845 121.172 196.812 118.834 196.795 117.351C196.795 116.191 196.795 115.558 196.795 115.558L207.138 116.143L206.696 119.863L206.046 125.322L205.917 126.395L205.469 130.115L204.26 140.111C206.903 152.19 203.431 169.849 203.431 169.849Z" fill="#E4897B"/>
<path d="M204.507 169.366C204.507 169.057 200.083 169.298 200.083 169.298C200.083 169.298 197.367 171.68 194.729 172.197C192.092 172.714 193.57 174.101 196.516 174.101H203.796C205.901 174.12 204.591 172.579 204.507 169.366Z" fill="#263238"/>
<path d="M197.372 170.183C197.308 170.133 197.264 170.067 197.245 169.994C197.226 169.922 197.233 169.846 197.266 169.777C197.283 169.723 197.313 169.672 197.353 169.628C197.394 169.584 197.444 169.548 197.501 169.521C197.815 169.41 198.158 169.377 198.492 169.424C198.134 169.26 197.82 169.062 197.803 168.859C197.803 168.728 197.893 168.622 198.095 168.54C198.183 168.506 198.278 168.488 198.375 168.488C198.471 168.488 198.567 168.506 198.655 168.54C199.254 168.757 199.623 169.646 199.64 169.68C199.652 169.705 199.652 169.733 199.64 169.758V169.782C199.63 169.792 199.616 169.801 199.601 169.806C199.03 170.058 198.412 170.222 197.775 170.289C197.63 170.297 197.487 170.26 197.372 170.183ZM197.619 169.7C197.588 169.713 197.561 169.731 197.539 169.754C197.517 169.776 197.5 169.802 197.49 169.83C197.445 169.98 197.49 170.018 197.49 170.033C197.703 170.183 198.509 169.97 199.17 169.733C198.667 169.596 198.13 169.583 197.619 169.695V169.7ZM198.179 168.733C198.117 168.733 198.016 168.806 198.022 168.859C198.022 169.028 198.666 169.342 199.315 169.54C199.171 169.205 198.906 168.919 198.559 168.724C198.503 168.701 198.442 168.689 198.38 168.69C198.316 168.69 198.253 168.701 198.195 168.724L198.179 168.733Z" fill="#263238"/>
<path d="M180.88 169.366C180.88 169.057 176.462 169.298 176.462 169.298C176.462 169.298 173.746 171.68 171.108 172.197C168.47 172.714 169.943 174.101 172.889 174.101H180.169C182.28 174.12 180.975 172.579 180.88 169.366Z" fill="#263238"/>
<path d="M173.751 170.183C173.688 170.132 173.645 170.066 173.626 169.994C173.607 169.922 173.613 169.846 173.645 169.777C173.662 169.723 173.692 169.672 173.732 169.628C173.773 169.584 173.823 169.548 173.88 169.521C174.194 169.411 174.537 169.377 174.871 169.424C174.513 169.26 174.199 169.062 174.188 168.859C174.188 168.73 174.283 168.624 174.473 168.54C174.561 168.506 174.657 168.488 174.753 168.488C174.85 168.488 174.945 168.506 175.033 168.54C175.633 168.757 176.002 169.646 176.019 169.68C176.026 169.692 176.029 169.705 176.029 169.719C176.029 169.732 176.026 169.746 176.019 169.758C176.019 169.758 176.019 169.758 176.019 169.782L175.98 169.806C175.406 170.057 174.787 170.221 174.149 170.289C174.006 170.295 173.865 170.258 173.751 170.183ZM173.997 169.7C173.968 169.713 173.941 169.731 173.92 169.754C173.899 169.776 173.883 169.802 173.874 169.83C173.829 169.98 173.874 170.018 173.902 170.033C174.109 170.183 174.916 169.97 175.582 169.733C175.069 169.591 174.519 169.578 173.997 169.695V169.7ZM174.557 168.733C174.496 168.733 174.395 168.806 174.401 168.859C174.401 169.028 175.045 169.342 175.7 169.54C175.553 169.205 175.286 168.919 174.938 168.724C174.882 168.7 174.821 168.689 174.759 168.69C174.695 168.69 174.632 168.701 174.574 168.724L174.557 168.733Z" fill="#263238"/>
<path d="M182.201 121.042L184.587 106.548V96.7398C190.876 92.6621 203 92.6621 203 92.6621C203 92.6621 212.312 103.808 207.788 122.134L196.095 123.583L195.35 120.163L193.883 123.583L182.201 121.042Z" fill="#263238"/>
<path opacity="0.2" d="M182.201 121.042L184.587 106.548V96.7398C190.876 92.6621 203 92.6621 203 92.6621C203 92.6621 212.312 103.808 207.788 122.134L196.095 123.583L195.35 120.163L193.883 123.583L182.201 121.042Z" fill="white"/>
<path opacity="0.2" d="M195.35 120.216L197.59 114.181C197.59 114.181 199.953 113.563 202.988 109.514C202.999 109.514 202.473 116.404 195.35 120.216Z" fill="black"/>
<path opacity="0.2" d="M190.367 99.5277L195.614 99.0977C196.452 100.79 196.742 102.647 196.454 104.47L193.094 106.214L190.658 104.721C190.658 104.721 190.58 100.89 190.367 99.5277Z" fill="black"/>
<path opacity="0.2" d="M203 98.4213C203.704 99.9145 204.224 101.468 204.551 103.055L206.41 103.736L207.413 102.659C207.413 102.659 206.735 99.5036 205.587 97.9575L203 98.4213Z" fill="black"/>
<path d="M181.983 120.216L194.393 123.357L193.614 124.797L181.826 121.666L181.983 120.216Z" fill="#263238"/>
<path d="M195.613 123.149L195.82 124.473L207.989 123.149L208.174 121.482L195.613 123.149Z" fill="#263238"/>
<path d="M198.168 94.6962C200.158 94.4062 202.17 94.2367 204.188 94.1889L203.437 93.1212C201.475 93.0765 199.511 93.1767 197.568 93.4207L198.168 94.6962Z" fill="#263238"/>
<path d="M187.006 96.0107C185.399 96.6098 184.475 97.0592 184.475 97.0592V98.3781C185.378 97.9852 186.283 97.6261 187.191 97.3007L187.006 96.0107Z" fill="#263238"/>
<path d="M187.78 97.1116C190.893 96.0588 194.122 95.2833 197.418 94.7974L196.858 93.5122C193.663 93.9718 190.54 94.7467 187.551 95.8216L187.78 97.1116Z" fill="#263238"/>
<path d="M154.135 100.885L150.955 99.7837L150.395 102.373C150.395 102.373 153.262 103.871 154.46 102.088L154.135 100.885Z" fill="#E4897B"/>
<path d="M149.375 99.9431L148.355 101.943L150.416 102.373L150.954 99.7837L149.375 99.9431Z" fill="#E4897B"/>
<path d="M202.949 73.0513L202.574 70.1138L199.673 70.9255C199.673 70.9255 199.494 73.8243 201.885 73.8823L202.949 73.0513Z" fill="#E4897B"/>
<path d="M201.66 68.9883L199.135 69.1622L199.672 70.9257L202.573 70.114L201.66 68.9883Z" fill="#E4897B"/>
<path opacity="0.2" d="M179.162 91.9373C178.277 91.1112 177.353 90.2415 176.462 89.3815C176.121 87.5842 175.902 85.9995 175.902 85.9995C176.969 86.6822 177.824 87.5811 178.393 88.6167C178.961 89.6523 179.225 90.7928 179.162 91.9373Z" fill="black"/>
<path d="M176.226 85.1686C174.944 89.6302 173.007 93.9326 170.464 97.9719C167.944 102.103 158.362 102.6 153.546 102.707L153.322 100.6C156.223 100.011 165.239 98.4599 166.471 96.2036C168.482 92.2945 170.138 88.256 171.421 84.125L176.226 85.1589V85.1686Z" fill="#DC897C"/>
<path d="M173.483 81.5255C170.744 83.0716 169.277 87.0913 168.812 89.0577L174.502 92.6716L177.375 90.2559C178.54 84.7094 174.524 80.9409 173.483 81.5255Z" fill="#FB4774"/>
<path opacity="0.6" d="M173.483 81.5255C170.744 83.0716 169.277 87.0913 168.812 89.0577L174.502 92.6716L177.375 90.2559C178.54 84.7094 174.524 80.9409 173.483 81.5255Z" fill="white"/>
<path d="M201.258 73.9931L197.193 74.37C197.135 74.3714 197.078 74.3625 197.025 74.344C196.972 74.3254 196.924 74.2975 196.884 74.2621C196.844 74.2267 196.813 74.1845 196.793 74.1382C196.773 74.0919 196.764 74.0425 196.767 73.9931L196.521 66.5672C196.513 66.4623 196.549 66.3584 196.623 66.2749C196.698 66.1914 196.804 66.1339 196.924 66.1131L200.984 65.7411C201.041 65.7389 201.099 65.7472 201.152 65.7655C201.206 65.7839 201.254 65.8117 201.294 65.8473C201.335 65.8829 201.366 65.9254 201.385 65.972C201.405 66.0186 201.413 66.0684 201.409 66.1179L201.656 73.5438C201.664 73.6475 201.628 73.7502 201.555 73.8328C201.481 73.9154 201.376 73.9723 201.258 73.9931Z" fill="#263238"/>
<path opacity="0.6" d="M201.258 73.9931L197.193 74.37C197.135 74.3714 197.078 74.3625 197.025 74.344C196.972 74.3254 196.924 74.2975 196.884 74.2621C196.844 74.2267 196.813 74.1845 196.793 74.1382C196.773 74.0919 196.764 74.0425 196.767 73.9931L196.521 66.5672C196.513 66.4623 196.549 66.3584 196.623 66.2749C196.698 66.1914 196.804 66.1339 196.924 66.1131L200.984 65.7411C201.041 65.7389 201.099 65.7472 201.152 65.7655C201.206 65.7839 201.254 65.8117 201.294 65.8473C201.335 65.8829 201.366 65.9254 201.385 65.972C201.405 66.0186 201.413 66.0684 201.409 66.1179L201.656 73.5438C201.664 73.6475 201.628 73.7502 201.555 73.8328C201.481 73.9154 201.376 73.9723 201.258 73.9931Z" fill="white"/>
<path d="M200.9 74.0273L196.84 74.3993C196.782 74.4021 196.725 74.3944 196.671 74.3767C196.617 74.359 196.568 74.3317 196.528 74.2966C196.487 74.2615 196.455 74.2193 196.435 74.1729C196.414 74.1265 196.405 74.0769 196.409 74.0273L196.168 66.5966C196.157 66.4924 196.192 66.3887 196.266 66.3056C196.339 66.2226 196.446 66.1661 196.565 66.1472L200.625 65.7752C200.682 65.7731 200.739 65.7813 200.792 65.7994C200.846 65.8174 200.894 65.8448 200.934 65.8798C200.974 65.9149 201.005 65.9568 201.025 66.0028C201.045 66.0489 201.054 66.0981 201.051 66.1472L201.297 73.578C201.308 73.6821 201.273 73.7859 201.199 73.8689C201.126 73.952 201.019 74.0085 200.9 74.0273Z" fill="#263238"/>
<path opacity="0.7" d="M200.9 74.0273L196.84 74.3993C196.782 74.4021 196.725 74.3944 196.671 74.3767C196.617 74.359 196.568 74.3317 196.528 74.2966C196.487 74.2615 196.455 74.2193 196.435 74.1729C196.414 74.1265 196.405 74.0769 196.409 74.0273L196.168 66.5966C196.157 66.4924 196.192 66.3887 196.266 66.3056C196.339 66.2226 196.446 66.1661 196.565 66.1472L200.625 65.7752C200.682 65.7731 200.739 65.7813 200.792 65.7994C200.846 65.8174 200.894 65.8448 200.934 65.8798C200.974 65.9149 201.005 65.9568 201.025 66.0028C201.045 66.0489 201.054 66.0981 201.051 66.1472L201.297 73.578C201.308 73.6821 201.273 73.7859 201.199 73.8689C201.126 73.952 201.019 74.0085 200.9 74.0273Z" fill="white"/>
<path d="M200.631 65.9196L199.567 66.0163L199.433 66.3013L197.786 66.4511L197.635 66.195L196.571 66.2917C196.494 66.3055 196.425 66.3431 196.378 66.3973C196.331 66.4515 196.308 66.5187 196.313 66.5864L196.554 74.0123C196.552 74.0446 196.557 74.0769 196.57 74.1072C196.584 74.1375 196.604 74.165 196.631 74.1879C196.657 74.2107 196.689 74.2285 196.724 74.2398C196.759 74.2512 196.797 74.256 196.834 74.2539L200.894 73.8819C200.971 73.869 201.039 73.8325 201.087 73.7791C201.134 73.7257 201.157 73.6591 201.152 73.592L200.911 66.1612C200.913 66.1291 200.906 66.0971 200.893 66.0672C200.879 66.0372 200.859 66.0101 200.832 65.9874C200.806 65.9646 200.775 65.9469 200.74 65.9352C200.705 65.9236 200.668 65.9183 200.631 65.9196Z" fill="#FB4774"/>
<path opacity="0.8" d="M200.089 68.606L197.104 68.8814C197.067 68.8828 197.031 68.8776 196.997 68.8662C196.963 68.8548 196.932 68.8374 196.906 68.8151C196.88 68.7928 196.86 68.7662 196.847 68.7368C196.834 68.7075 196.828 68.6761 196.829 68.6447V67.9296C196.822 67.863 196.844 67.7964 196.891 67.7429C196.937 67.6893 197.005 67.6526 197.081 67.6397L200.072 67.3643C200.108 67.3636 200.145 67.3694 200.178 67.3814C200.212 67.3934 200.243 67.4114 200.268 67.4341C200.293 67.4568 200.313 67.4838 200.325 67.5134C200.338 67.543 200.343 67.5745 200.341 67.6059L200.369 68.3209C200.373 68.3904 200.347 68.4588 200.295 68.5119C200.243 68.565 200.169 68.5987 200.089 68.606Z" fill="white"/>
</svg>
